<?xml version='1.0' encoding='UTF-8' standalone='no'?>
<svg baseProfile="tiny" height="4.23333mm" version="1.2" viewBox="0 0 28 28" width="4.23333mm" xmlns="http://www.w3.org/2000/svg" xmlns:xlink="http://www.w3.org/1999/xlink">
    <style id="current-color-scheme" type="text/css">.ColorScheme-Text {color:#fcfcfc;}</style>
    <title>Qt SVG Document</title>
    <desc>Auto-generated by Klassy window decoration</desc>
    <defs/>
    <g fill="none" fill-rule="evenodd" stroke="black" stroke-linecap="square" stroke-linejoin="bevel" stroke-width="1">
        <g class="ColorScheme-Text" fill="currentColor" fill-opacity="0.900008" font-family="Noto Sans" font-size="23.3333" font-style="normal" font-weight="400" stroke="none" transform="matrix(1.55556,0,0,1.55556,7,11)">
            <path d="M-0.6435,0.707143 C-0.6435,0.0500522 0.0500522,-0.6435 0.707143,-0.6435 L6.36429,-0.6435 C7.02138,-0.6435 7.71493,0.0500522 7.71493,0.707143 L7.71493,6.36429 C7.71493,7.02138 7.02138,7.71493 6.36429,7.71493 L0.707143,7.71493 C0.0500522,7.71493 -0.6435,7.02138 -0.6435,6.36429 L-0.6435,0.707143 M0.6435,0.707143 L0.6435,6.36429 C0.6435,6.48828 0.583145,6.42793 0.707143,6.42793 L6.36429,6.42793 C6.48828,6.42793 6.42793,6.48828 6.42793,6.36429 L6.42793,0.707143 C6.42793,0.583145 6.48828,0.6435 6.36429,0.6435 L0.707143,0.6435 C0.583145,0.6435 0.6435,0.583145 0.6435,0.707143 " fill-rule="nonzero" vector-effect="none"/>
        </g>
        <g class="ColorScheme-Text" fill="currentColor" fill-opacity="0.900008" font-family="Noto Sans" font-size="23.3333" font-style="normal" font-weight="400" stroke="none" transform="matrix(1.55556,0,0,1.55556,7,11)">
            <path d="M2.57143,-3.21493 L6.94157,-3.21493 C7.29697,-3.21493 7.58507,-2.92682 7.58507,-2.57143 C7.58507,-2.21603 7.29697,-1.92793 6.94157,-1.92793 L2.57143,-1.92793 C2.21603,-1.92793 1.92793,-2.21603 1.92793,-2.57143 C1.92793,-2.92682 2.21603,-3.21493 2.57143,-3.21493 M6.94157,-3.21493 C8.7,-3.21493 10.2864,-1.62857 10.2864,0.129857 L10.2864,4.5 C10.2864,4.8554 9.99825,5.1435 9.64286,5.1435 C9.28746,5.1435 8.99936,4.8554 8.99936,4.5 L8.99936,0.129857 C8.99936,-1.09548 8.1669,-1.92793 6.94157,-1.92793 C6.58618,-1.92793 6.29807,-2.21603 6.29807,-2.57143 C6.29807,-2.92682 6.58618,-3.21493 6.94157,-3.21493 " fill-rule="nonzero" vector-effect="none"/>
        </g>
    </g>
</svg>
