<?xml version='1.0' encoding='UTF-8' standalone='no'?>
<svg baseProfile="tiny" height="8.46667mm" version="1.2" viewBox="0 0 88 88" width="8.46667mm" xmlns="http://www.w3.org/2000/svg" xmlns:xlink="http://www.w3.org/1999/xlink">
    <style id="current-color-scheme" type="text/css">.ColorScheme-Text {color:#232629;}</style>
    <title>Qt SVG Document</title>
    <desc>Auto-generated by Klassy window decoration</desc>
    <defs/>
    <g fill="none" fill-rule="evenodd" stroke="black" stroke-linecap="square" stroke-linejoin="bevel" stroke-width="1">
        <g class="ColorScheme-Text" fill="currentColor" fill-opacity="0.900008" font-family="Noto Sans" font-size="36.6667" font-style="normal" font-weight="400" stroke="none" transform="matrix(4.88889,0,0,4.88889,0,0)">
            <path d="M3.88585,5.31818 C3.88585,4.5978 4.5978,3.88585 5.31818,3.88585 L12.6818,3.88585 C13.4022,3.88585 14.1141,4.5978 14.1141,5.31818 L14.1141,12.6818 C14.1141,13.4022 13.4022,14.1141 12.6818,14.1141 L5.31818,14.1141 C4.5978,14.1141 3.88585,13.4022 3.88585,12.6818 L3.88585,5.31818 M4.9096,5.31818 L4.9096,12.6818 C4.9096,12.9781 5.02185,13.0904 5.31818,13.0904 L12.6818,13.0904 C12.9781,13.0904 13.0904,12.9781 13.0904,12.6818 L13.0904,5.31818 C13.0904,5.02185 12.9781,4.9096 12.6818,4.9096 L5.31818,4.9096 C5.02185,4.9096 4.9096,5.02185 4.9096,5.31818 " fill-rule="nonzero" vector-effect="none"/>
        </g>
    </g>
</svg>
