<?xml version='1.0' encoding='UTF-8' standalone='no'?>
<svg baseProfile="tiny" height="8.46667mm" version="1.2" viewBox="0 0 88 88" width="8.46667mm" xmlns="http://www.w3.org/2000/svg" xmlns:xlink="http://www.w3.org/1999/xlink">
    <style id="current-color-scheme" type="text/css">.ColorScheme-Text {color:#232629;}</style>
    <title>Qt SVG Document</title>
    <desc>Auto-generated by Klassy window decoration</desc>
    <defs/>
    <g fill="none" fill-rule="evenodd" stroke="black" stroke-linecap="square" stroke-linejoin="bevel" stroke-width="1">
        <g class="ColorScheme-Text" fill="currentColor" fill-opacity="0.900008" font-family="Noto Sans" font-size="36.6667" font-style="normal" font-weight="400" stroke="none" transform="matrix(4.88889,0,0,4.88889,21.5,31.5)">
            <path d="M-0.511875,0.715909 C-0.511875,0.108498 0.108498,-0.511875 0.715909,-0.511875 L6.44318,-0.511875 C7.05059,-0.511875 7.67097,0.108498 7.67097,0.715909 L7.67097,6.44318 C7.67097,7.05059 7.05059,7.67097 6.44318,7.67097 L0.715909,7.67097 C0.108498,7.67097 -0.511875,7.05059 -0.511875,6.44318 L-0.511875,0.715909 M0.511875,0.715909 L0.511875,6.44318 C0.511875,6.62654 0.532549,6.64722 0.715909,6.64722 L6.44318,6.64722 C6.62654,6.64722 6.64722,6.62654 6.64722,6.44318 L6.64722,0.715909 C6.64722,0.532549 6.62654,0.511875 6.44318,0.511875 L0.715909,0.511875 C0.532549,0.511875 0.511875,0.532549 0.511875,0.715909 " fill-rule="nonzero" vector-effect="none"/>
        </g>
        <g class="ColorScheme-Text" fill="currentColor" fill-opacity="0.900008" font-family="Noto Sans" font-size="36.6667" font-style="normal" font-weight="400" stroke="none" transform="matrix(4.88889,0,0,4.88889,21.5,31.5)">
            <path d="M2.04545,-2.55733 L6.74898,-2.55733 C7.03168,-2.55733 7.26085,-2.32816 7.26085,-2.04545 C7.26085,-1.76275 7.03168,-1.53358 6.74898,-1.53358 L2.04545,-1.53358 C1.76275,-1.53358 1.53358,-1.76275 1.53358,-2.04545 C1.53358,-2.32816 1.76275,-2.55733 2.04545,-2.55733 M6.74898,-2.55733 C8.31718,-2.55733 9.71642,-1.15808 9.71642,0.410114 L9.71642,5.11364 C9.71642,5.39634 9.48725,5.62551 9.20455,5.62551 C8.92184,5.62551 8.69267,5.39634 8.69267,5.11364 L8.69267,0.410114 C8.69267,-0.734034 7.89312,-1.53358 6.74898,-1.53358 C6.46628,-1.53358 6.2371,-1.76275 6.2371,-2.04545 C6.2371,-2.32816 6.46628,-2.55733 6.74898,-2.55733 " fill-rule="nonzero" vector-effect="none"/>
        </g>
    </g>
</svg>
