<?xml version='1.0' encoding='UTF-8' standalone='no'?>
<svg baseProfile="tiny" height="12.7mm" version="1.2" viewBox="0 0 132 132" width="12.7mm" xmlns="http://www.w3.org/2000/svg" xmlns:xlink="http://www.w3.org/1999/xlink">
    <style id="current-color-scheme" type="text/css">.ColorScheme-Text {color:#fcfcfc;}</style>
    <title>Qt SVG Document</title>
    <desc>Auto-generated by Klassy window decoration</desc>
    <defs/>
    <g fill="none" fill-rule="evenodd" stroke="black" stroke-linecap="square" stroke-linejoin="bevel" stroke-width="1">
        <g class="ColorScheme-Text" fill="currentColor" fill-opacity="0.900008" font-family="Noto Sans" font-size="36.6667" font-style="normal" font-weight="400" stroke="none" transform="matrix(7.33333,0,0,7.33333,0,0)">
            <path d="M3.95407,5.34545 C3.95407,4.64298 4.64298,3.95407 5.34545,3.95407 L12.6545,3.95407 C13.357,3.95407 14.0459,4.64298 14.0459,5.34545 L14.0459,12.6545 C14.0459,13.357 13.357,14.0459 12.6545,14.0459 L5.34545,14.0459 C4.64298,14.0459 3.95407,13.357 3.95407,12.6545 L3.95407,5.34545 M4.90957,5.34545 L4.90957,12.6545 C4.90957,12.9612 5.03876,13.0904 5.34545,13.0904 L12.6545,13.0904 C12.9612,13.0904 13.0904,12.9612 13.0904,12.6545 L13.0904,5.34545 C13.0904,5.03876 12.9612,4.90957 12.6545,4.90957 L5.34545,4.90957 C5.03876,4.90957 4.90957,5.03876 4.90957,5.34545 " fill-rule="nonzero" vector-effect="none"/>
        </g>
    </g>
</svg>
