<?xml version='1.0' encoding='UTF-8' standalone='no'?>
<svg baseProfile="tiny" height="12.7mm" version="1.2" viewBox="0 0 132 132" width="12.7mm" xmlns="http://www.w3.org/2000/svg" xmlns:xlink="http://www.w3.org/1999/xlink">
    <style id="current-color-scheme" type="text/css">.ColorScheme-Text {color:#fcfcfc;}</style>
    <title>Qt SVG Document</title>
    <desc>Auto-generated by Klassy window decoration</desc>
    <defs/>
    <g fill="none" fill-rule="evenodd" stroke="black" stroke-linecap="square" stroke-linejoin="bevel" stroke-width="1">
        <g class="ColorScheme-Text" fill="currentColor" fill-opacity="0.900008" font-family="Noto Sans" font-size="36.6667" font-style="normal" font-weight="400" stroke="none" transform="matrix(7.33333,0,0,7.33333,32.5,47.5)">
            <path d="M-0.47775,0.709091 C-0.47775,0.11958 0.11958,-0.47775 0.709091,-0.47775 L6.38182,-0.47775 C6.97133,-0.47775 7.56866,0.11958 7.56866,0.709091 L7.56866,6.38182 C7.56866,6.97133 6.97133,7.56866 6.38182,7.56866 L0.709091,7.56866 C0.11958,7.56866 -0.47775,6.97133 -0.47775,6.38182 L-0.47775,0.709091 M0.47775,0.709091 L0.47775,6.38182 C0.47775,6.57555 0.515361,6.61316 0.709091,6.61316 L6.38182,6.61316 C6.57555,6.61316 6.61316,6.57555 6.61316,6.38182 L6.61316,0.709091 C6.61316,0.515361 6.57555,0.47775 6.38182,0.47775 L0.709091,0.47775 C0.515361,0.47775 0.47775,0.515361 0.47775,0.709091 " fill-rule="nonzero" vector-effect="none"/>
        </g>
        <g class="ColorScheme-Text" fill="currentColor" fill-opacity="0.900008" font-family="Noto Sans" font-size="36.6667" font-style="normal" font-weight="400" stroke="none" transform="matrix(7.33333,0,0,7.33333,32.5,47.5)">
            <path d="M2.04545,-2.5232 L6.76268,-2.5232 C7.02654,-2.5232 7.24043,-2.30931 7.24043,-2.04545 C7.24043,-1.7816 7.02654,-1.5677 6.76268,-1.5677 L2.04545,-1.5677 C1.7816,-1.5677 1.5677,-1.7816 1.5677,-2.04545 C1.5677,-2.30931 1.7816,-2.5232 2.04545,-2.5232 M6.76268,-2.5232 C8.27152,-2.5232 9.61411,-1.18061 9.61411,0.328227 L9.61411,5.04545 C9.61411,5.30931 9.40022,5.5232 9.13636,5.5232 C8.87251,5.5232 8.65861,5.30931 8.65861,5.04545 L8.65861,0.328227 C8.65861,-0.78483 7.87574,-1.5677 6.76268,-1.5677 C6.49883,-1.5677 6.28493,-1.7816 6.28493,-2.04545 C6.28493,-2.30931 6.49883,-2.5232 6.76268,-2.5232 " fill-rule="nonzero" vector-effect="none"/>
        </g>
    </g>
</svg>
