<?xml version='1.0' encoding='UTF-8' standalone='no'?>
<svg baseProfile="tiny" height="5.29167mm" version="1.2" viewBox="0 0 25 25" width="5.29167mm" xmlns="http://www.w3.org/2000/svg" xmlns:xlink="http://www.w3.org/1999/xlink">
    <style id="current-color-scheme" type="text/css">.ColorScheme-Text {color:#232629;}</style>
    <title>Qt SVG Document</title>
    <desc>Auto-generated by Klassy window decoration</desc>
    <defs/>
    <g fill="none" fill-rule="evenodd" stroke="black" stroke-linecap="square" stroke-linejoin="bevel" stroke-width="1">
        <g class="ColorScheme-Text" fill="currentColor" fill-opacity="0.900008" font-family="Noto Sans" font-size="16.6667" font-style="normal" font-weight="400" stroke="none" transform="matrix(1.38889,0,0,1.38889,0,0)">
            <path d="M4.31964,5.616 C4.31964,4.9498 4.9498,4.31964 5.616,4.31964 L13.104,4.31964 C13.7702,4.31964 14.4004,4.9498 14.4004,5.616 L14.4004,13.104 C14.4004,13.7702 13.7702,14.4004 13.104,14.4004 L5.616,14.4004 C4.9498,14.4004 4.31964,13.7702 4.31964,13.104 L4.31964,5.616 M5.04036,5.616 L5.04036,13.104 C5.04036,13.4717 5.24833,13.6796 5.616,13.6796 L13.104,13.6796 C13.4717,13.6796 13.6796,13.4717 13.6796,13.104 L13.6796,5.616 C13.6796,5.24833 13.4717,5.04036 13.104,5.04036 L5.616,5.04036 C5.24833,5.04036 5.04036,5.24833 5.04036,5.616 " fill-rule="nonzero" vector-effect="none"/>
        </g>
    </g>
</svg>
