<?xml version='1.0' encoding='UTF-8' standalone='no'?>
<svg baseProfile="tiny" height="5.29167mm" version="1.2" viewBox="0 0 25 25" width="5.29167mm" xmlns="http://www.w3.org/2000/svg" xmlns:xlink="http://www.w3.org/1999/xlink">
    <style id="current-color-scheme" type="text/css">.ColorScheme-Text {color:#232629;}</style>
    <title>Qt SVG Document</title>
    <desc>Auto-generated by Klassy window decoration</desc>
    <defs/>
    <g fill="none" fill-rule="evenodd" stroke="black" stroke-linecap="square" stroke-linejoin="bevel" stroke-width="1">
        <g class="ColorScheme-Text" fill="currentColor" fill-opacity="0.900008" font-family="Noto Sans" font-size="16.6667" font-style="normal" font-weight="400" stroke="none" transform="matrix(1.38889,0,0,1.38889,6.5,9.5)">
            <path d="M-0.36036,0.72 C-0.36036,0.173089 0.173089,-0.36036 0.72,-0.36036 L6.48,-0.36036 C7.02691,-0.36036 7.56036,0.173089 7.56036,0.72 L7.56036,6.48 C7.56036,7.02691 7.02691,7.56036 6.48,7.56036 L0.72,7.56036 C0.173089,7.56036 -0.36036,7.02691 -0.36036,6.48 L-0.36036,0.72 M0.36036,0.72 L0.36036,6.48 C0.36036,6.72838 0.471621,6.83964 0.72,6.83964 L6.48,6.83964 C6.72838,6.83964 6.83964,6.72838 6.83964,6.48 L6.83964,0.72 C6.83964,0.471621 6.72838,0.36036 6.48,0.36036 L0.72,0.36036 C0.471621,0.36036 0.36036,0.471621 0.36036,0.72 " fill-rule="nonzero" vector-effect="none"/>
        </g>
        <g class="ColorScheme-Text" fill="currentColor" fill-opacity="0.900008" font-family="Noto Sans" font-size="16.6667" font-style="normal" font-weight="400" stroke="none" transform="matrix(1.38889,0,0,1.38889,6.5,9.5)">
            <path d="M2.16,-2.52036 L7.19928,-2.52036 C7.3983,-2.52036 7.55964,-2.35902 7.55964,-2.16 C7.55964,-1.96098 7.3983,-1.79964 7.19928,-1.79964 L2.16,-1.79964 C1.96098,-1.79964 1.79964,-1.96098 1.79964,-2.16 C1.79964,-2.35902 1.96098,-2.52036 2.16,-2.52036 M7.19928,-2.52036 C8.54188,-2.52036 9.72036,-1.34188 9.72036,0.00072 L9.72036,5.04 C9.72036,5.23902 9.55902,5.40036 9.36,5.40036 C9.16098,5.40036 8.99964,5.23902 8.99964,5.04 L8.99964,0.00072 C8.99964,-1.04335 8.24335,-1.79964 7.19928,-1.79964 C7.00026,-1.79964 6.83892,-1.96098 6.83892,-2.16 C6.83892,-2.35902 7.00026,-2.52036 7.19928,-2.52036 " fill-rule="nonzero" vector-effect="none"/>
        </g>
    </g>
</svg>
