<?xml version='1.0' encoding='UTF-8' standalone='no'?>
<svg baseProfile="tiny" height="6.35mm" version="1.2" viewBox="0 0 60 60" width="6.35mm" xmlns="http://www.w3.org/2000/svg" xmlns:xlink="http://www.w3.org/1999/xlink">
    <style id="current-color-scheme" type="text/css">.ColorScheme-Text {color:#fcfcfc;}</style>
    <title>Qt SVG Document</title>
    <desc>Auto-generated by Klassy window decoration</desc>
    <defs/>
    <g fill="none" fill-rule="evenodd" stroke="black" stroke-linecap="square" stroke-linejoin="bevel" stroke-width="1">
        <g class="ColorScheme-Text" fill="currentColor" fill-opacity="0.900008" font-family="Noto Sans" font-size="33.3333" font-style="normal" font-weight="400" stroke="none" transform="matrix(3.33333,0,0,3.33333,14.5,21.5)">
            <path d="M-0.45045,0.72 C-0.45045,0.135772 0.135772,-0.45045 0.72,-0.45045 L6.48,-0.45045 C7.06423,-0.45045 7.65045,0.135772 7.65045,0.72 L7.65045,6.48 C7.65045,7.06423 7.06423,7.65045 6.48,7.65045 L0.72,7.65045 C0.135772,7.65045 -0.45045,7.06423 -0.45045,6.48 L-0.45045,0.72 M0.45045,0.72 L0.45045,6.48 C0.45045,6.69106 0.508937,6.74955 0.72,6.74955 L6.48,6.74955 C6.69106,6.74955 6.74955,6.69106 6.74955,6.48 L6.74955,0.72 C6.74955,0.508937 6.69106,0.45045 6.48,0.45045 L0.72,0.45045 C0.508937,0.45045 0.45045,0.508937 0.45045,0.72 " fill-rule="nonzero" vector-effect="none"/>
        </g>
        <g class="ColorScheme-Text" fill="currentColor" fill-opacity="0.900008" font-family="Noto Sans" font-size="33.3333" font-style="normal" font-weight="400" stroke="none" transform="matrix(3.33333,0,0,3.33333,14.5,21.5)">
            <path d="M2.1,-2.55045 L6.9591,-2.55045 C7.20788,-2.55045 7.40955,-2.34878 7.40955,-2.1 C7.40955,-1.85122 7.20788,-1.64955 6.9591,-1.64955 L2.1,-1.64955 C1.85122,-1.64955 1.64955,-1.85122 1.64955,-2.1 C1.64955,-2.34878 1.85122,-2.55045 2.1,-2.55045 M6.9591,-2.55045 C8.43853,-2.55045 9.75045,-1.23853 9.75045,0.2409 L9.75045,5.1 C9.75045,5.34878 9.54878,5.55045 9.3,5.55045 C9.05122,5.55045 8.84955,5.34878 8.84955,5.1 L8.84955,0.2409 C8.84955,-0.865361 8.06536,-1.64955 6.9591,-1.64955 C6.71032,-1.64955 6.50865,-1.85122 6.50865,-2.1 C6.50865,-2.34878 6.71032,-2.55045 6.9591,-2.55045 " fill-rule="nonzero" vector-effect="none"/>
        </g>
    </g>
</svg>
