<?xml version='1.0' encoding='UTF-8' standalone='no'?>
<svg baseProfile="tiny" height="8.46667mm" version="1.2" viewBox="0 0 56 56" width="8.46667mm" xmlns="http://www.w3.org/2000/svg" xmlns:xlink="http://www.w3.org/1999/xlink">
    <style id="current-color-scheme" type="text/css">.ColorScheme-Text {color:#232629;}</style>
    <title>Qt SVG Document</title>
    <desc>Auto-generated by Klassy window decoration</desc>
    <defs/>
    <g fill="none" fill-rule="evenodd" stroke="black" stroke-linecap="square" stroke-linejoin="bevel" stroke-width="1">
        <g class="ColorScheme-Text" fill="currentColor" fill-opacity="0.900008" font-family="Noto Sans" font-size="23.3333" font-style="normal" font-weight="400" stroke="none" transform="matrix(3.11111,0,0,3.11111,13.5,20.5)">
            <path d="M-0.482625,0.707143 C-0.482625,0.116689 0.116689,-0.482625 0.707143,-0.482625 L6.36429,-0.482625 C6.95474,-0.482625 7.55405,0.116689 7.55405,0.707143 L7.55405,6.36429 C7.55405,6.95474 6.95474,7.55405 6.36429,7.55405 L0.707143,7.55405 C0.116689,7.55405 -0.482625,6.95474 -0.482625,6.36429 L-0.482625,0.707143 M0.482625,0.707143 L0.482625,6.36429 C0.482625,6.55492 0.516508,6.5888 0.707143,6.5888 L6.36429,6.5888 C6.55492,6.5888 6.5888,6.55492 6.5888,6.36429 L6.5888,0.707143 C6.5888,0.516508 6.55492,0.482625 6.36429,0.482625 L0.707143,0.482625 C0.516508,0.482625 0.482625,0.516508 0.482625,0.707143 " fill-rule="nonzero" vector-effect="none"/>
        </g>
        <g class="ColorScheme-Text" fill="currentColor" fill-opacity="0.900008" font-family="Noto Sans" font-size="23.3333" font-style="normal" font-weight="400" stroke="none" transform="matrix(3.11111,0,0,3.11111,13.5,20.5)">
            <path d="M2.25,-2.73263 L6.94189,-2.73263 C7.20844,-2.73263 7.42452,-2.51655 7.42452,-2.25 C7.42452,-1.98345 7.20844,-1.76738 6.94189,-1.76738 L2.25,-1.76738 C1.98345,-1.76738 1.76738,-1.98345 1.76738,-2.25 C1.76738,-2.51655 1.98345,-2.73263 2.25,-2.73263 M6.94189,-2.73263 C8.45598,-2.73262 9.80405,-1.38456 9.80405,0.129536 L9.80405,4.82143 C9.80405,5.08797 9.58797,5.30405 9.32143,5.30405 C9.05488,5.30405 8.8388,5.08797 8.8388,4.82143 L8.8388,0.129536 C8.8388,-0.984736 8.05616,-1.76738 6.94189,-1.76738 C6.67535,-1.76738 6.45927,-1.98345 6.45927,-2.25 C6.45927,-2.51655 6.67535,-2.73263 6.94189,-2.73263 " fill-rule="nonzero" vector-effect="none"/>
        </g>
    </g>
</svg>
