<?xml version='1.0' encoding='UTF-8' standalone='no'?>
<svg baseProfile="tiny" height="8.46667mm" version="1.2" viewBox="0 0 56 56" width="8.46667mm" xmlns="http://www.w3.org/2000/svg" xmlns:xlink="http://www.w3.org/1999/xlink">
    <style id="current-color-scheme" type="text/css">.ColorScheme-Text {color:#232629;}</style>
    <title>Qt SVG Document</title>
    <desc>Auto-generated by Klassy window decoration</desc>
    <defs/>
    <g fill="none" fill-rule="evenodd" stroke="black" stroke-linecap="square" stroke-linejoin="bevel" stroke-width="1">
        <g class="ColorScheme-Text" fill="currentColor" fill-opacity="0.900008" font-family="Noto Sans" font-size="23.3333" font-style="normal" font-weight="400" stroke="none" transform="matrix(3.11111,0,0,3.11111,0,0)">
            <path d="M3.85666,5.27143 C3.85666,4.55671 4.55671,3.85666 5.27143,3.85666 L12.7286,3.85666 C13.4433,3.85666 14.1433,4.55671 14.1433,5.27143 L14.1433,12.7286 C14.1433,13.4433 13.4433,14.1433 12.7286,14.1433 L5.27143,14.1433 C4.55671,14.1433 3.85666,13.4433 3.85666,12.7286 L3.85666,5.27143 M4.82191,5.27143 L4.82191,12.7286 C4.82191,13.0435 4.95653,13.1781 5.27143,13.1781 L12.7286,13.1781 C13.0435,13.1781 13.1781,13.0435 13.1781,12.7286 L13.1781,5.27143 C13.1781,4.95653 13.0435,4.82191 12.7286,4.82191 L5.27143,4.82191 C4.95653,4.82191 4.82191,4.95653 4.82191,5.27143 " fill-rule="nonzero" vector-effect="none"/>
        </g>
    </g>
</svg>
