<?xml version='1.0' encoding='UTF-8' standalone='no'?>
<svg baseProfile="tiny" height="12.7mm" version="1.2" viewBox="0 0 84 84" width="12.7mm" xmlns="http://www.w3.org/2000/svg" xmlns:xlink="http://www.w3.org/1999/xlink">
    <style id="current-color-scheme" type="text/css">.ColorScheme-Text {color:#fcfcfc;}</style>
    <title>Qt SVG Document</title>
    <desc>Auto-generated by Klassy window decoration</desc>
    <defs/>
    <g fill="none" fill-rule="evenodd" stroke="black" stroke-linecap="square" stroke-linejoin="bevel" stroke-width="1">
        <g class="ColorScheme-Text" fill="currentColor" fill-opacity="0.900008" font-family="Noto Sans" font-size="23.3333" font-style="normal" font-weight="400" stroke="none" transform="matrix(4.66667,0,0,4.66667,0,0)">
            <path d="M3.85661,5.31429 C3.85661,4.58327 4.58327,3.85661 5.31429,3.85661 L12.6857,3.85661 C13.4167,3.85661 14.1434,4.58327 14.1434,5.31429 L14.1434,12.6857 C14.1434,13.4167 13.4167,14.1434 12.6857,14.1434 L5.31429,14.1434 C4.58327,14.1434 3.85661,13.4167 3.85661,12.6857 L3.85661,5.31429 M4.92911,5.31429 L4.92911,12.6857 C4.92911,12.9725 5.02752,13.0709 5.31429,13.0709 L12.6857,13.0709 C12.9725,13.0709 13.0709,12.9725 13.0709,12.6857 L13.0709,5.31429 C13.0709,5.02752 12.9725,4.92911 12.6857,4.92911 L5.31429,4.92911 C5.02752,4.92911 4.92911,5.02752 4.92911,5.31429 " fill-rule="nonzero" vector-effect="none"/>
        </g>
    </g>
</svg>
