<?xml version='1.0' encoding='UTF-8' standalone='no'?>
<svg baseProfile="tiny" height="12.7mm" version="1.2" viewBox="0 0 108 108" width="12.7mm" xmlns="http://www.w3.org/2000/svg" xmlns:xlink="http://www.w3.org/1999/xlink">
    <style id="current-color-scheme" type="text/css">.ColorScheme-Text {color:#232629;}</style>
    <title>Qt SVG Document</title>
    <desc>Auto-generated by Klassy window decoration</desc>
    <defs/>
    <g fill="none" fill-rule="evenodd" stroke="black" stroke-linecap="square" stroke-linejoin="bevel" stroke-width="1">
        <g class="ColorScheme-Text" fill="currentColor" fill-opacity="0.900008" font-family="Noto Sans" font-size="30" font-style="normal" font-weight="400" stroke="none" transform="matrix(6,0,0,6,0,0)">
            <path d="M3.9995,5.4 C3.9995,4.69563 4.69563,3.9995 5.4,3.9995 L12.6,3.9995 C13.3044,3.9995 14.0005,4.69563 14.0005,5.4 L14.0005,12.6 C14.0005,13.3044 13.3044,14.0005 12.6,14.0005 L5.4,14.0005 C4.69563,14.0005 3.9995,13.3044 3.9995,12.6 L3.9995,5.4 M5.0005,5.4 L5.0005,12.6 C5.0005,12.8897 5.11026,12.9995 5.4,12.9995 L12.6,12.9995 C12.8897,12.9995 12.9995,12.8897 12.9995,12.6 L12.9995,5.4 C12.9995,5.11026 12.8897,5.0005 12.6,5.0005 L5.4,5.0005 C5.11026,5.0005 5.0005,5.11026 5.0005,5.4 " fill-rule="nonzero" vector-effect="none"/>
        </g>
    </g>
</svg>
