<?xml version='1.0' encoding='UTF-8' standalone='no'?>
<svg baseProfile="tiny" height="8.46667mm" version="1.2" viewBox="0 0 80 80" width="8.46667mm" xmlns="http://www.w3.org/2000/svg" xmlns:xlink="http://www.w3.org/1999/xlink">
    <style id="current-color-scheme" type="text/css">.ColorScheme-Text {color:#fcfcfc;}</style>
    <title>Qt SVG Document</title>
    <desc>Auto-generated by Klassy window decoration</desc>
    <defs/>
    <g fill="none" fill-rule="evenodd" stroke="black" stroke-linecap="square" stroke-linejoin="bevel" stroke-width="1">
        <g class="ColorScheme-Text" fill="currentColor" fill-opacity="0.900008" font-family="Noto Sans" font-size="33.3333" font-style="normal" font-weight="400" stroke="none" transform="matrix(4.44444,0,0,4.44444,0,0)">
            <path d="M4.04955,5.4 C4.04955,4.71636 4.71636,4.04955 5.4,4.04955 L12.6,4.04955 C13.2836,4.04955 13.9505,4.71636 13.9505,5.4 L13.9505,12.6 C13.9505,13.2836 13.2836,13.9505 12.6,13.9505 L5.4,13.9505 C4.71636,13.9505 4.04955,13.2836 4.04955,12.6 L4.04955,5.4 M4.95045,5.4 L4.95045,12.6 C4.95045,12.9105 5.08953,13.0495 5.4,13.0495 L12.6,13.0495 C12.9105,13.0495 13.0495,12.9105 13.0495,12.6 L13.0495,5.4 C13.0495,5.08953 12.9105,4.95045 12.6,4.95045 L5.4,4.95045 C5.08953,4.95045 4.95045,5.08953 4.95045,5.4 " fill-rule="nonzero" vector-effect="none"/>
        </g>
    </g>
</svg>
