<?xml version='1.0' encoding='UTF-8' standalone='no'?>
<svg baseProfile="tiny" height="8.46667mm" version="1.2" viewBox="0 0 80 80" width="8.46667mm" xmlns="http://www.w3.org/2000/svg" xmlns:xlink="http://www.w3.org/1999/xlink">
    <style id="current-color-scheme" type="text/css">.ColorScheme-Text {color:#fcfcfc;}</style>
    <title>Qt SVG Document</title>
    <desc>Auto-generated by Klassy window decoration</desc>
    <defs/>
    <g fill="none" fill-rule="evenodd" stroke="black" stroke-linecap="square" stroke-linejoin="bevel" stroke-width="1">
        <g class="ColorScheme-Text" fill="currentColor" fill-opacity="0.900008" font-family="Noto Sans" font-size="33.3333" font-style="normal" font-weight="400" stroke="none" transform="matrix(4.44444,0,0,4.44444,20,29)">
            <path d="M-0.45045,0.72 C-0.45045,0.135772 0.135772,-0.45045 0.72,-0.45045 L6.48,-0.45045 C7.06423,-0.45045 7.65045,0.135772 7.65045,0.72 L7.65045,6.48 C7.65045,7.06423 7.06423,7.65045 6.48,7.65045 L0.72,7.65045 C0.135772,7.65045 -0.45045,7.06423 -0.45045,6.48 L-0.45045,0.72 M0.45045,0.72 L0.45045,6.48 C0.45045,6.69106 0.508937,6.74955 0.72,6.74955 L6.48,6.74955 C6.69106,6.74955 6.74955,6.69106 6.74955,6.48 L6.74955,0.72 C6.74955,0.508937 6.69106,0.45045 6.48,0.45045 L0.72,0.45045 C0.508937,0.45045 0.45045,0.508937 0.45045,0.72 " fill-rule="nonzero" vector-effect="none"/>
        </g>
        <g class="ColorScheme-Text" fill="currentColor" fill-opacity="0.900008" font-family="Noto Sans" font-size="33.3333" font-style="normal" font-weight="400" stroke="none" transform="matrix(4.44444,0,0,4.44444,20,29)">
            <path d="M2.025,-2.47545 L6.8841,-2.47545 C7.13288,-2.47545 7.33455,-2.27378 7.33455,-2.025 C7.33455,-1.77622 7.13288,-1.57455 6.8841,-1.57455 L2.025,-1.57455 C1.77622,-1.57455 1.57455,-1.77622 1.57455,-2.025 C1.57455,-2.27378 1.77622,-2.47545 2.025,-2.47545 M6.8841,-2.47545 C8.36353,-2.47545 9.67545,-1.16353 9.67545,0.3159 L9.67545,5.175 C9.67545,5.42378 9.47378,5.62545 9.225,5.62545 C8.97622,5.62545 8.77455,5.42378 8.77455,5.175 L8.77455,0.3159 C8.77455,-0.790361 7.99036,-1.57455 6.8841,-1.57455 C6.63532,-1.57455 6.43365,-1.77622 6.43365,-2.025 C6.43365,-2.27378 6.63532,-2.47545 6.8841,-2.47545 " fill-rule="nonzero" vector-effect="none"/>
        </g>
    </g>
</svg>
