<?xml version='1.0' encoding='UTF-8' standalone='no'?>
<svg baseProfile="tiny" height="4.8213mm" version="1.2" viewBox="0 0 41 41" width="4.8213mm" xmlns="http://www.w3.org/2000/svg" xmlns:xlink="http://www.w3.org/1999/xlink">
    <style id="current-color-scheme" type="text/css">.ColorScheme-Text {color:#fcfcfc;}</style>
    <title>Qt SVG Document</title>
    <desc>Auto-generated by Klassy window decoration</desc>
    <defs/>
    <g fill="none" fill-rule="evenodd" stroke="black" stroke-linecap="square" stroke-linejoin="bevel" stroke-width="1">
        <g class="ColorScheme-Text" fill="currentColor" fill-opacity="0.900008" font-family="Noto Sans" font-size="30" font-style="normal" font-weight="400" stroke="none" transform="matrix(2.27778,0,0,2.27778,0,0)">
            <path d="M3.95078,5.3561 C3.95078,4.64064 4.64064,3.95078 5.3561,3.95078 L13.0829,3.95078 C13.7984,3.95078 14.4882,4.64064 14.4882,5.3561 L14.4882,13.0829 C14.4882,13.7984 13.7984,14.4882 13.0829,14.4882 L5.3561,14.4882 C4.64064,14.4882 3.95078,13.7984 3.95078,13.0829 L3.95078,5.3561 M4.82971,5.3561 L4.82971,13.0829 C4.82971,13.4343 5.0047,13.6093 5.3561,13.6093 L13.0829,13.6093 C13.4343,13.6093 13.6093,13.4343 13.6093,13.0829 L13.6093,5.3561 C13.6093,5.0047 13.4343,4.82971 13.0829,4.82971 L5.3561,4.82971 C5.0047,4.82971 4.82971,5.0047 4.82971,5.3561 " fill-rule="nonzero" vector-effect="none"/>
        </g>
    </g>
</svg>
