<?xml version='1.0' encoding='UTF-8' standalone='no'?>
<svg baseProfile="tiny" height="4.8213mm" version="1.2" viewBox="0 0 41 41" width="4.8213mm" xmlns="http://www.w3.org/2000/svg" xmlns:xlink="http://www.w3.org/1999/xlink">
    <style id="current-color-scheme" type="text/css">.ColorScheme-Text {color:#fcfcfc;}</style>
    <title>Qt SVG Document</title>
    <desc>Auto-generated by Klassy window decoration</desc>
    <defs/>
    <g fill="none" fill-rule="evenodd" stroke="black" stroke-linecap="square" stroke-linejoin="bevel" stroke-width="1">
        <g class="ColorScheme-Text" fill="currentColor" fill-opacity="0.900008" font-family="Noto Sans" font-size="30" font-style="normal" font-weight="400" stroke="none" transform="matrix(2.27778,0,0,2.27778,10,16)">
            <path d="M-0.439463,0.702439 C-0.439463,0.132461 0.132461,-0.439463 0.702439,-0.439463 L6.32195,-0.439463 C6.89193,-0.439463 7.46385,0.132461 7.46385,0.702439 L7.46385,6.32195 C7.46385,6.89193 6.89193,7.46385 6.32195,7.46385 L0.702439,7.46385 C0.132461,7.46385 -0.439463,6.89193 -0.439463,6.32195 L-0.439463,0.702439 M0.439463,0.702439 L0.439463,6.32195 C0.439463,6.52787 0.496524,6.58493 0.702439,6.58493 L6.32195,6.58493 C6.52787,6.58493 6.58493,6.52787 6.58493,6.32195 L6.58493,0.702439 C6.58493,0.496524 6.52787,0.439463 6.32195,0.439463 L0.702439,0.439463 C0.496524,0.439463 0.439463,0.496524 0.439463,0.702439 " fill-rule="nonzero" vector-effect="none"/>
        </g>
        <g class="ColorScheme-Text" fill="currentColor" fill-opacity="0.900008" font-family="Noto Sans" font-size="30" font-style="normal" font-weight="400" stroke="none" transform="matrix(2.27778,0,0,2.27778,10,16)">
            <path d="M2.19512,-2.63459 L6.93571,-2.63459 C7.17842,-2.63459 7.37517,-2.43783 7.37517,-2.19512 C7.37517,-1.95241 7.17842,-1.75566 6.93571,-1.75566 L2.19512,-1.75566 C1.95241,-1.75566 1.75566,-1.95241 1.75566,-2.19512 C1.75566,-2.43783 1.95241,-2.63459 2.19512,-2.63459 M6.93571,-2.63459 C8.37905,-2.63459 9.65898,-1.35466 9.65898,0.0886829 L9.65898,4.82927 C9.65898,5.07198 9.46222,5.26873 9.21951,5.26873 C8.9768,5.26873 8.78005,5.07198 8.78005,4.82927 L8.78005,0.0886829 C8.78005,-0.990596 8.01499,-1.75566 6.93571,-1.75566 C6.693,-1.75566 6.49624,-1.95241 6.49624,-2.19512 C6.49624,-2.43783 6.693,-2.63459 6.93571,-2.63459 " fill-rule="nonzero" vector-effect="none"/>
        </g>
    </g>
</svg>
