<?xml version='1.0' encoding='UTF-8' standalone='no'?>
<svg baseProfile="tiny" height="6.35mm" version="1.2" viewBox="0 0 30 30" width="6.35mm" xmlns="http://www.w3.org/2000/svg" xmlns:xlink="http://www.w3.org/1999/xlink">
    <style id="current-color-scheme" type="text/css">.ColorScheme-Text {color:#fcfcfc;}</style>
    <title>Qt SVG Document</title>
    <desc>Auto-generated by Klassy window decoration</desc>
    <defs/>
    <g fill="none" fill-rule="evenodd" stroke="black" stroke-linecap="square" stroke-linejoin="bevel" stroke-width="1">
        <g class="ColorScheme-Text" fill="currentColor" fill-opacity="0.900008" font-family="Noto Sans" font-size="16.6667" font-style="normal" font-weight="400" stroke="none" transform="matrix(1.66667,0,0,1.66667,0,0)">
            <path d="M3.5994,5.16 C3.5994,4.38103 4.38103,3.5994 5.16,3.5994 L12.84,3.5994 C13.619,3.5994 14.4006,4.38103 14.4006,5.16 L14.4006,12.84 C14.4006,13.619 13.619,14.4006 12.84,14.4006 L5.16,14.4006 C4.38103,14.4006 3.5994,13.619 3.5994,12.84 L3.5994,5.16 M4.8006,5.16 L4.8006,12.84 C4.8006,13.1214 4.87858,13.1994 5.16,13.1994 L12.84,13.1994 C13.1214,13.1994 13.1994,13.1214 13.1994,12.84 L13.1994,5.16 C13.1994,4.87858 13.1214,4.8006 12.84,4.8006 L5.16,4.8006 C4.87858,4.8006 4.8006,4.87858 4.8006,5.16 " fill-rule="nonzero" vector-effect="none"/>
        </g>
    </g>
</svg>
