<?xml version='1.0' encoding='UTF-8' standalone='no'?>
<svg baseProfile="tiny" height="5.89643mm" version="1.2" viewBox="0 0 39 39" width="5.89643mm" xmlns="http://www.w3.org/2000/svg" xmlns:xlink="http://www.w3.org/1999/xlink">
    <style id="current-color-scheme" type="text/css">.ColorScheme-Text {color:#fcfcfc;}</style>
    <title>Qt SVG Document</title>
    <desc>Auto-generated by Klassy window decoration</desc>
    <defs/>
    <g fill="none" fill-rule="evenodd" stroke="black" stroke-linecap="square" stroke-linejoin="bevel" stroke-width="1">
        <g class="ColorScheme-Text" fill="currentColor" fill-opacity="0.900008" font-family="Noto Sans" font-size="23.3333" font-style="normal" font-weight="400" stroke="none" transform="matrix(2.16667,0,0,2.16667,0,0)">
            <path d="M4.15338,5.53846 C4.15338,4.83729 4.83729,4.15338 5.53846,4.15338 L12.9231,4.15338 C13.6242,4.15338 14.3082,4.83729 14.3082,5.53846 L14.3082,12.9231 C14.3082,13.6242 13.6242,14.3082 12.9231,14.3082 L5.53846,14.3082 C4.83729,14.3082 4.15338,13.6242 4.15338,12.9231 L4.15338,5.53846 M5.07738,5.53846 L5.07738,12.9231 C5.07738,13.2415 5.22003,13.3842 5.53846,13.3842 L12.9231,13.3842 C13.2415,13.3842 13.3842,13.2415 13.3842,12.9231 L13.3842,5.53846 C13.3842,5.22003 13.2415,5.07738 12.9231,5.07738 L5.53846,5.07738 C5.22003,5.07738 5.07738,5.22003 5.07738,5.53846 " fill-rule="nonzero" vector-effect="none"/>
        </g>
    </g>
</svg>
