<?xml version='1.0' encoding='UTF-8' standalone='no'?>
<svg baseProfile="tiny" height="6.35mm" version="1.2" viewBox="0 0 66 66" width="6.35mm" xmlns="http://www.w3.org/2000/svg" xmlns:xlink="http://www.w3.org/1999/xlink">
    <style id="current-color-scheme" type="text/css">.ColorScheme-Text {color:#fcfcfc;}</style>
    <title>Qt SVG Document</title>
    <desc>Auto-generated by Klassy window decoration</desc>
    <defs/>
    <g fill="none" fill-rule="evenodd" stroke="black" stroke-linecap="square" stroke-linejoin="bevel" stroke-width="1">
        <g class="ColorScheme-Text" fill="currentColor" fill-opacity="0.900008" font-family="Noto Sans" font-size="36.6667" font-style="normal" font-weight="400" stroke="none" transform="matrix(3.66667,0,0,3.66667,16,24)">
            <path d="M-0.546,0.709091 C-0.546,0.0913102 0.0913102,-0.546 0.709091,-0.546 L6.38182,-0.546 C6.9996,-0.546 7.63691,0.0913102 7.63691,0.709091 L7.63691,6.38182 C7.63691,6.9996 6.9996,7.63691 6.38182,7.63691 L0.709091,7.63691 C0.0913102,7.63691 -0.546,6.9996 -0.546,6.38182 L-0.546,0.709091 M0.546,0.709091 L0.546,6.38182 C0.546,6.54728 0.543631,6.54491 0.709091,6.54491 L6.38182,6.54491 C6.54728,6.54491 6.54491,6.54728 6.54491,6.38182 L6.54491,0.709091 C6.54491,0.543631 6.54728,0.546 6.38182,0.546 L0.709091,0.546 C0.543631,0.546 0.546,0.543631 0.546,0.709091 " fill-rule="nonzero" vector-effect="none"/>
        </g>
        <g class="ColorScheme-Text" fill="currentColor" fill-opacity="0.900008" font-family="Noto Sans" font-size="36.6667" font-style="normal" font-weight="400" stroke="none" transform="matrix(3.66667,0,0,3.66667,16,24)">
            <path d="M2.18182,-2.72782 L6.76255,-2.72782 C7.06409,-2.72782 7.30855,-2.48337 7.30855,-2.18182 C7.30855,-1.88027 7.06409,-1.63582 6.76255,-1.63582 L2.18182,-1.63582 C1.88027,-1.63582 1.63582,-1.88027 1.63582,-2.18182 C1.63582,-2.48337 1.88027,-2.72782 2.18182,-2.72782 M6.76255,-2.72782 C8.37504,-2.72782 9.81873,-1.28413 9.81873,0.328364 L9.81873,4.90909 C9.81873,5.21064 9.57427,5.45509 9.27273,5.45509 C8.97118,5.45509 8.72673,5.21064 8.72673,4.90909 L8.72673,0.328364 C8.72673,-0.831811 7.92272,-1.63582 6.76255,-1.63582 C6.461,-1.63582 6.21655,-1.88027 6.21655,-2.18182 C6.21655,-2.48337 6.461,-2.72782 6.76255,-2.72782 " fill-rule="nonzero" vector-effect="none"/>
        </g>
    </g>
</svg>
