<?xml version='1.0' encoding='UTF-8' standalone='no'?>
<svg baseProfile="tiny" height="5.89643mm" version="1.2" viewBox="0 0 39 39" width="5.89643mm" xmlns="http://www.w3.org/2000/svg" xmlns:xlink="http://www.w3.org/1999/xlink">
    <style id="current-color-scheme" type="text/css">.ColorScheme-Text {color:#232629;}</style>
    <title>Qt SVG Document</title>
    <desc>Auto-generated by Klassy window decoration</desc>
    <defs/>
    <g fill="none" fill-rule="evenodd" stroke="black" stroke-linecap="square" stroke-linejoin="bevel" stroke-width="1">
        <g class="ColorScheme-Text" fill="currentColor" fill-opacity="0.900008" font-family="Noto Sans" font-size="23.3333" font-style="normal" font-weight="400" stroke="none" transform="matrix(2.16667,0,0,2.16667,9,15)">
            <path d="M-0.462,0.738462 C-0.462,0.139254 0.139254,-0.462 0.738462,-0.462 L6.64615,-0.462 C7.24536,-0.462 7.84662,0.139254 7.84662,0.738462 L7.84662,6.64615 C7.84662,7.24536 7.24536,7.84662 6.64615,7.84662 L0.738462,7.84662 C0.139254,7.84662 -0.462,7.24536 -0.462,6.64615 L-0.462,0.738462 M0.462,0.738462 L0.462,6.64615 C0.462,6.86263 0.521987,6.92262 0.738462,6.92262 L6.64615,6.92262 C6.86263,6.92262 6.92262,6.86263 6.92262,6.64615 L6.92262,0.738462 C6.92262,0.521987 6.86263,0.462 6.64615,0.462 L0.738462,0.462 C0.521987,0.462 0.462,0.521987 0.462,0.738462 " fill-rule="nonzero" vector-effect="none"/>
        </g>
        <g class="ColorScheme-Text" fill="currentColor" fill-opacity="0.900008" font-family="Noto Sans" font-size="23.3333" font-style="normal" font-weight="400" stroke="none" transform="matrix(2.16667,0,0,2.16667,9,15)">
            <path d="M2.30769,-2.76969 L7.29138,-2.76969 C7.54654,-2.76969 7.75338,-2.56285 7.75338,-2.30769 C7.75338,-2.05254 7.54654,-1.84569 7.29138,-1.84569 L2.30769,-1.84569 C2.05254,-1.84569 1.84569,-2.05254 1.84569,-2.30769 C1.84569,-2.56285 2.05254,-2.76969 2.30769,-2.76969 M7.29138,-2.76969 C8.80874,-2.76969 10.1543,-1.42413 10.1543,0.0932308 L10.1543,5.07692 C10.1543,5.33208 9.94746,5.53892 9.69231,5.53892 C9.43715,5.53892 9.23031,5.33208 9.23031,5.07692 L9.23031,0.0932308 C9.23031,-1.0414 8.42601,-1.84569 7.29138,-1.84569 C7.03623,-1.84569 6.82938,-2.05254 6.82938,-2.30769 C6.82938,-2.56285 7.03623,-2.76969 7.29138,-2.76969 " fill-rule="nonzero" vector-effect="none"/>
        </g>
    </g>
</svg>
