<?xml version='1.0' encoding='UTF-8' standalone='no'?>
<svg baseProfile="tiny" height="12.7mm" version="1.2" viewBox="0 0 120 120" width="12.7mm" xmlns="http://www.w3.org/2000/svg" xmlns:xlink="http://www.w3.org/1999/xlink">
    <style id="current-color-scheme" type="text/css">.ColorScheme-Text {color:#232629;}</style>
    <title>Qt SVG Document</title>
    <desc>Auto-generated by Klassy window decoration</desc>
    <defs/>
    <g fill="none" fill-rule="evenodd" stroke="black" stroke-linecap="square" stroke-linejoin="bevel" stroke-width="1">
        <g class="ColorScheme-Text" fill="currentColor" fill-opacity="0.900008" font-family="Noto Sans" font-size="33.3333" font-style="normal" font-weight="400" stroke="none" transform="matrix(6.66667,0,0,6.66667,29.5,43.5)">
            <path d="M-0.525525,0.705 C-0.525525,0.0979597 0.0979597,-0.525525 0.705,-0.525525 L6.345,-0.525525 C6.95204,-0.525525 7.57552,0.0979597 7.57552,0.705 L7.57552,6.345 C7.57552,6.95204 6.95204,7.57552 6.345,7.57552 L0.705,7.57552 C0.0979597,7.57552 -0.525525,6.95204 -0.525525,6.345 L-0.525525,0.705 M0.525525,0.705 L0.525525,6.345 C0.525525,6.51668 0.533319,6.52447 0.705,6.52447 L6.345,6.52447 C6.51668,6.52447 6.52447,6.51668 6.52447,6.345 L6.52447,0.705 C6.52447,0.533319 6.51668,0.525525 6.345,0.525525 L0.705,0.525525 C0.533319,0.525525 0.525525,0.533319 0.525525,0.705 " fill-rule="nonzero" vector-effect="none"/>
        </g>
        <g class="ColorScheme-Text" fill="currentColor" fill-opacity="0.900008" font-family="Noto Sans" font-size="33.3333" font-style="normal" font-weight="400" stroke="none" transform="matrix(6.66667,0,0,6.66667,29.5,43.5)">
            <path d="M2.1,-2.62552 L6.68895,-2.62552 C6.97919,-2.62552 7.21447,-2.39024 7.21447,-2.1 C7.21447,-1.80976 6.97919,-1.57447 6.68895,-1.57447 L2.1,-1.57447 C1.80976,-1.57447 1.57447,-1.80976 1.57447,-2.1 C1.57447,-2.39024 1.80976,-2.62552 2.1,-2.62552 M6.68895,-2.62552 C8.26583,-2.62552 9.67552,-1.21583 9.67552,0.36105 L9.67552,4.95 C9.67552,5.24024 9.44024,5.47553 9.15,5.47553 C8.85976,5.47553 8.62447,5.24024 8.62447,4.95 L8.62447,0.36105 C8.62447,-0.780471 7.83047,-1.57447 6.68895,-1.57447 C6.39871,-1.57447 6.16342,-1.80976 6.16342,-2.1 C6.16342,-2.39024 6.39871,-2.62552 6.68895,-2.62552 " fill-rule="nonzero" vector-effect="none"/>
        </g>
    </g>
</svg>
