<?xml version='1.0' encoding='UTF-8' standalone='no'?>
<svg baseProfile="tiny" height="12.7mm" version="1.2" viewBox="0 0 120 120" width="12.7mm" xmlns="http://www.w3.org/2000/svg" xmlns:xlink="http://www.w3.org/1999/xlink">
    <style id="current-color-scheme" type="text/css">.ColorScheme-Text {color:#232629;}</style>
    <title>Qt SVG Document</title>
    <desc>Auto-generated by Klassy window decoration</desc>
    <defs/>
    <g fill="none" fill-rule="evenodd" stroke="black" stroke-linecap="square" stroke-linejoin="bevel" stroke-width="1">
        <g class="ColorScheme-Text" fill="currentColor" fill-opacity="0.900008" font-family="Noto Sans" font-size="33.3333" font-style="normal" font-weight="400" stroke="none" transform="matrix(6.66667,0,0,6.66667,0,0)">
            <path d="M3.89947,5.34 C3.89947,4.61698 4.61698,3.89947 5.34,3.89947 L12.66,3.89947 C13.383,3.89947 14.1005,4.61698 14.1005,5.34 L14.1005,12.66 C14.1005,13.383 13.383,14.1005 12.66,14.1005 L5.34,14.1005 C4.61698,14.1005 3.89947,13.383 3.89947,12.66 L3.89947,5.34 M4.95052,5.34 L4.95052,12.66 C4.95052,12.9477 5.05234,13.0495 5.34,13.0495 L12.66,13.0495 C12.9477,13.0495 13.0495,12.9477 13.0495,12.66 L13.0495,5.34 C13.0495,5.05234 12.9477,4.95052 12.66,4.95052 L5.34,4.95052 C5.05234,4.95052 4.95052,5.05234 4.95052,5.34 " fill-rule="nonzero" vector-effect="none"/>
        </g>
    </g>
</svg>
