<?xml version='1.0' encoding='UTF-8' standalone='no'?>
<svg baseProfile="tiny" height="5.82083mm" version="1.2" viewBox="0 0 55 55" width="5.82083mm" xmlns="http://www.w3.org/2000/svg" xmlns:xlink="http://www.w3.org/1999/xlink">
    <style id="current-color-scheme" type="text/css">.ColorScheme-Text {color:#232629;}</style>
    <title>Qt SVG Document</title>
    <desc>Auto-generated by Klassy window decoration</desc>
    <defs/>
    <g fill="none" fill-rule="evenodd" stroke="black" stroke-linecap="square" stroke-linejoin="bevel" stroke-width="1">
        <g class="ColorScheme-Text" fill="currentColor" fill-opacity="0.900008" font-family="Noto Sans" font-size="33.3333" font-style="normal" font-weight="400" stroke="none" transform="matrix(3.05556,0,0,3.05556,0,0)">
            <path d="M3.92678,5.36727 C3.92678,4.63956 4.63956,3.92678 5.36727,3.92678 L12.96,3.92678 C13.6877,3.92678 14.4005,4.63956 14.4005,5.36727 L14.4005,12.96 C14.4005,13.6877 13.6877,14.4005 12.96,14.4005 L5.36727,14.4005 C4.63956,14.4005 3.92678,13.6877 3.92678,12.96 L3.92678,5.36727 M4.90958,5.36727 L4.90958,12.96 C4.90958,13.2806 5.04665,13.4177 5.36727,13.4177 L12.96,13.4177 C13.2806,13.4177 13.4177,13.2806 13.4177,12.96 L13.4177,5.36727 C13.4177,5.04665 13.2806,4.90958 12.96,4.90958 L5.36727,4.90958 C5.04665,4.90958 4.90958,5.04665 4.90958,5.36727 " fill-rule="nonzero" vector-effect="none"/>
        </g>
    </g>
</svg>
