<?xml version='1.0' encoding='UTF-8' standalone='no'?>
<svg baseProfile="tiny" height="5.29167mm" version="1.2" viewBox="0 0 50 50" width="5.29167mm" xmlns="http://www.w3.org/2000/svg" xmlns:xlink="http://www.w3.org/1999/xlink">
    <style id="current-color-scheme" type="text/css">.ColorScheme-Text {color:#fcfcfc;}</style>
    <title>Qt SVG Document</title>
    <desc>Auto-generated by Klassy window decoration</desc>
    <defs/>
    <g fill="none" fill-rule="evenodd" stroke="black" stroke-linecap="square" stroke-linejoin="bevel" stroke-width="1">
        <g class="ColorScheme-Text" fill="currentColor" fill-opacity="0.900008" font-family="Noto Sans" font-size="33.3333" font-style="normal" font-weight="400" stroke="none" transform="matrix(2.77778,0,0,2.77778,0,0)">
            <path d="M3.95946,5.4 C3.95946,4.67904 4.67904,3.95946 5.4,3.95946 L12.6,3.95946 C13.321,3.95946 14.0405,4.67904 14.0405,5.4 L14.0405,12.6 C14.0405,13.321 13.321,14.0405 12.6,14.0405 L5.4,14.0405 C4.67904,14.0405 3.95946,13.321 3.95946,12.6 L3.95946,5.4 M5.04054,5.4 L5.04054,12.6 C5.04054,12.8732 5.12684,12.9595 5.4,12.9595 L12.6,12.9595 C12.8732,12.9595 12.9595,12.8732 12.9595,12.6 L12.9595,5.4 C12.9595,5.12684 12.8732,5.04054 12.6,5.04054 L5.4,5.04054 C5.12684,5.04054 5.04054,5.12684 5.04054,5.4 " fill-rule="nonzero" vector-effect="none"/>
        </g>
    </g>
</svg>
