<?xml version='1.0' encoding='UTF-8' standalone='no'?>
<svg baseProfile="tiny" height="4.7625mm" version="1.2" viewBox="0 0 45 45" width="4.7625mm" xmlns="http://www.w3.org/2000/svg" xmlns:xlink="http://www.w3.org/1999/xlink">
    <style id="current-color-scheme" type="text/css">.ColorScheme-Text {color:#232629;}</style>
    <title>Qt SVG Document</title>
    <desc>Auto-generated by Klassy window decoration</desc>
    <defs/>
    <g fill="none" fill-rule="evenodd" stroke="black" stroke-linecap="square" stroke-linejoin="bevel" stroke-width="1">
        <g class="ColorScheme-Text" fill="currentColor" fill-opacity="0.900008" font-family="Noto Sans" font-size="33.3333" font-style="normal" font-weight="400" stroke="none" transform="matrix(2.5,0,0,2.5,0,0)">
            <path d="M3.9994,5.52 C3.9994,4.76312 4.76312,3.9994 5.52,3.9994 L12.88,3.9994 C13.6369,3.9994 14.4006,4.76312 14.4006,5.52 L14.4006,12.88 C14.4006,13.6369 13.6369,14.4006 12.88,14.4006 L5.52,14.4006 C4.76312,14.4006 3.9994,13.6369 3.9994,12.88 L3.9994,5.52 M5.2006,5.52 L5.2006,12.88 C5.2006,13.1393 5.26067,13.1994 5.52,13.1994 L12.88,13.1994 C13.1393,13.1994 13.1994,13.1393 13.1994,12.88 L13.1994,5.52 C13.1994,5.26067 13.1393,5.2006 12.88,5.2006 L5.52,5.2006 C5.26067,5.2006 5.2006,5.26067 5.2006,5.52 " fill-rule="nonzero" vector-effect="none"/>
        </g>
    </g>
</svg>
