<?xml version='1.0' encoding='UTF-8' standalone='no'?>
<svg baseProfile="tiny" height="12.7mm" version="1.2" viewBox="0 0 84 84" width="12.7mm" xmlns="http://www.w3.org/2000/svg" xmlns:xlink="http://www.w3.org/1999/xlink">
    <style id="current-color-scheme" type="text/css">.ColorScheme-Text {color:#232629;}</style>
    <title>Qt SVG Document</title>
    <desc>Auto-generated by Klassy window decoration</desc>
    <defs/>
    <g fill="none" fill-rule="evenodd" stroke="black" stroke-linecap="square" stroke-linejoin="bevel" stroke-width="1">
        <g class="ColorScheme-Text" fill="currentColor" fill-opacity="0.900008" font-family="Noto Sans" font-size="23.3333" font-style="normal" font-weight="400" stroke="none" transform="matrix(4.66667,0,0,4.66667,20.5,30.5)">
            <path d="M-0.53625,0.707143 C-0.53625,0.0944766 0.0944766,-0.53625 0.707143,-0.53625 L6.36429,-0.53625 C6.97695,-0.53625 7.60768,0.0944766 7.60768,0.707143 L7.60768,6.36429 C7.60768,6.97695 6.97695,7.60768 6.36429,7.60768 L0.707143,7.60768 C0.0944766,7.60768 -0.53625,6.97695 -0.53625,6.36429 L-0.53625,0.707143 M0.53625,0.707143 L0.53625,6.36429 C0.53625,6.53271 0.538721,6.53518 0.707143,6.53518 L6.36429,6.53518 C6.53271,6.53518 6.53518,6.53271 6.53518,6.36429 L6.53518,0.707143 C6.53518,0.538721 6.53271,0.53625 6.36429,0.53625 L0.707143,0.53625 C0.538721,0.53625 0.53625,0.538721 0.53625,0.707143 " fill-rule="nonzero" vector-effect="none"/>
        </g>
        <g class="ColorScheme-Text" fill="currentColor" fill-opacity="0.900008" font-family="Noto Sans" font-size="23.3333" font-style="normal" font-weight="400" stroke="none" transform="matrix(4.66667,0,0,4.66667,20.5,30.5)">
            <path d="M2.14286,-2.67911 L6.7275,-2.67911 C7.02366,-2.67911 7.26375,-2.43902 7.26375,-2.14286 C7.26375,-1.84669 7.02366,-1.60661 6.7275,-1.60661 L2.14286,-1.60661 C1.84669,-1.60661 1.60661,-1.84669 1.60661,-2.14286 C1.60661,-2.43902 1.84669,-2.67911 2.14286,-2.67911 M6.7275,-2.67911 C8.32304,-2.67911 9.75054,-1.25161 9.75054,0.343929 L9.75054,4.92857 C9.75054,5.22473 9.51045,5.46482 9.21429,5.46482 C8.91812,5.46482 8.67804,5.22473 8.67804,4.92857 L8.67804,0.343929 C8.67804,-0.807363 7.87879,-1.60661 6.7275,-1.60661 C6.43134,-1.60661 6.19125,-1.84669 6.19125,-2.14286 C6.19125,-2.43902 6.43134,-2.67911 6.7275,-2.67911 " fill-rule="nonzero" vector-effect="none"/>
        </g>
    </g>
</svg>
