<?xml version='1.0' encoding='UTF-8' standalone='no'?>
<svg baseProfile="tiny" height="6.35mm" version="1.2" viewBox="0 0 42 42" width="6.35mm" xmlns="http://www.w3.org/2000/svg" xmlns:xlink="http://www.w3.org/1999/xlink">
    <style id="current-color-scheme" type="text/css">.ColorScheme-Text {color:#fcfcfc;}</style>
    <title>Qt SVG Document</title>
    <desc>Auto-generated by Klassy window decoration</desc>
    <defs/>
    <g fill="none" fill-rule="evenodd" stroke="black" stroke-linecap="square" stroke-linejoin="bevel" stroke-width="1">
        <g class="ColorScheme-Text" fill="currentColor" fill-opacity="0.900008" font-family="Noto Sans" font-size="23.3333" font-style="normal" font-weight="400" stroke="none" transform="matrix(2.33333,0,0,2.33333,0,0)">
            <path d="M3.85671,5.22857 C3.85671,4.53015 4.53015,3.85671 5.22857,3.85671 L12.7714,3.85671 C13.4699,3.85671 14.1433,4.53015 14.1433,5.22857 L14.1433,12.7714 C14.1433,13.4699 13.4699,14.1433 12.7714,14.1433 L5.22857,14.1433 C4.53015,14.1433 3.85671,13.4699 3.85671,12.7714 L3.85671,5.22857 M4.71471,5.22857 L4.71471,12.7714 C4.71471,13.1145 4.88554,13.2853 5.22857,13.2853 L12.7714,13.2853 C13.1145,13.2853 13.2853,13.1145 13.2853,12.7714 L13.2853,5.22857 C13.2853,4.88554 13.1145,4.71471 12.7714,4.71471 L5.22857,4.71471 C4.88554,4.71471 4.71471,4.88554 4.71471,5.22857 " fill-rule="nonzero" vector-effect="none"/>
        </g>
    </g>
</svg>
