<?xml version='1.0' encoding='UTF-8' standalone='no'?>
<svg baseProfile="tiny" height="6.35mm" version="1.2" viewBox="0 0 42 42" width="6.35mm" xmlns="http://www.w3.org/2000/svg" xmlns:xlink="http://www.w3.org/1999/xlink">
    <style id="current-color-scheme" type="text/css">.ColorScheme-Text {color:#fcfcfc;}</style>
    <title>Qt SVG Document</title>
    <desc>Auto-generated by Klassy window decoration</desc>
    <defs/>
    <g fill="none" fill-rule="evenodd" stroke="black" stroke-linecap="square" stroke-linejoin="bevel" stroke-width="1">
        <g class="ColorScheme-Text" fill="currentColor" fill-opacity="0.900008" font-family="Noto Sans" font-size="23.3333" font-style="normal" font-weight="400" stroke="none" transform="matrix(2.33333,0,0,2.33333,10,15)">
            <path d="M-0.429,0.728571 C-0.429,0.148495 0.148495,-0.429 0.728571,-0.429 L6.55714,-0.429 C7.13722,-0.429 7.71471,0.148495 7.71471,0.728571 L7.71471,6.55714 C7.71471,7.13722 7.13722,7.71471 6.55714,7.71471 L0.728571,7.71471 C0.148495,7.71471 -0.429,7.13722 -0.429,6.55714 L-0.429,0.728571 M0.429,0.728571 L0.429,6.55714 C0.429,6.78182 0.50389,6.85671 0.728571,6.85671 L6.55714,6.85671 C6.78182,6.85671 6.85671,6.78182 6.85671,6.55714 L6.85671,0.728571 C6.85671,0.50389 6.78182,0.429 6.55714,0.429 L0.728571,0.429 C0.50389,0.429 0.429,0.50389 0.429,0.728571 " fill-rule="nonzero" vector-effect="none"/>
        </g>
        <g class="ColorScheme-Text" fill="currentColor" fill-opacity="0.900008" font-family="Noto Sans" font-size="23.3333" font-style="normal" font-weight="400" stroke="none" transform="matrix(2.33333,0,0,2.33333,10,15)">
            <path d="M2.14286,-2.57186 L7.11343,-2.57186 C7.35036,-2.57186 7.54243,-2.37979 7.54243,-2.14286 C7.54243,-1.90593 7.35036,-1.71386 7.11343,-1.71386 L2.14286,-1.71386 C1.90593,-1.71386 1.71386,-1.90593 1.71386,-2.14286 C1.71386,-2.37979 1.90593,-2.57186 2.14286,-2.57186 M7.11343,-2.57186 C8.56974,-2.57186 9.85757,-1.28403 9.85757,0.172286 L9.85757,5.14286 C9.85757,5.37979 9.6655,5.57186 9.42857,5.57186 C9.19164,5.57186 8.99957,5.37979 8.99957,5.14286 L8.99957,0.172286 C8.99957,-0.928635 8.21435,-1.71386 7.11343,-1.71386 C6.8765,-1.71386 6.68443,-1.90593 6.68443,-2.14286 C6.68443,-2.37979 6.8765,-2.57186 7.11343,-2.57186 " fill-rule="nonzero" vector-effect="none"/>
        </g>
    </g>
</svg>
