<?xml version='1.0' encoding='UTF-8' standalone='no'?>
<svg baseProfile="tiny" height="8.46667mm" version="1.2" viewBox="0 0 64 64" width="8.46667mm" xmlns="http://www.w3.org/2000/svg" xmlns:xlink="http://www.w3.org/1999/xlink">
    <style id="current-color-scheme" type="text/css">.ColorScheme-Text {color:#fcfcfc;}</style>
    <title>Qt SVG Document</title>
    <desc>Auto-generated by Klassy window decoration</desc>
    <defs/>
    <g fill="none" fill-rule="evenodd" stroke="black" stroke-linecap="square" stroke-linejoin="bevel" stroke-width="1">
        <g class="ColorScheme-Text" fill="currentColor" fill-opacity="0.900008" font-family="Noto Sans" font-size="26.6667" font-style="normal" font-weight="400" stroke="none" transform="matrix(3.55556,0,0,3.55556,16,24)">
            <path d="M-0.563063,0.703125 C-0.563063,0.0815717 0.0815717,-0.563063 0.703125,-0.563063 L6.32813,-0.563063 C6.94968,-0.563063 7.59431,0.0815717 7.59431,0.703125 L7.59431,6.32813 C7.59431,6.94968 6.94968,7.59431 6.32813,7.59431 L0.703125,7.59431 C0.0815717,7.59431 -0.563063,6.94968 -0.563063,6.32813 L-0.563063,0.703125 M0.563063,0.703125 L0.563063,6.32813 C0.563063,6.48322 0.548028,6.46819 0.703125,6.46819 L6.32813,6.46819 C6.48322,6.46819 6.46819,6.48322 6.46819,6.32813 L6.46819,0.703125 C6.46819,0.548028 6.48322,0.563063 6.32813,0.563063 L0.703125,0.563063 C0.548028,0.563063 0.563063,0.548028 0.563063,0.703125 " fill-rule="nonzero" vector-effect="none"/>
        </g>
        <g class="ColorScheme-Text" fill="currentColor" fill-opacity="0.900008" font-family="Noto Sans" font-size="26.6667" font-style="normal" font-weight="400" stroke="none" transform="matrix(3.55556,0,0,3.55556,16,24)">
            <path d="M2.25,-2.81306 L6.74887,-2.81306 C7.05985,-2.81306 7.31194,-2.56097 7.31194,-2.25 C7.31194,-1.93903 7.05985,-1.68694 6.74887,-1.68694 L2.25,-1.68694 C1.93903,-1.68694 1.68694,-1.93903 1.68694,-2.25 C1.68694,-2.56097 1.93903,-2.81306 2.25,-2.81306 M6.74887,-2.81306 C8.3807,-2.81306 9.84431,-1.34945 9.84431,0.282375 L9.84431,4.78125 C9.84431,5.09222 9.59222,5.34431 9.28125,5.34431 C8.97028,5.34431 8.71819,5.09222 8.71819,4.78125 L8.71819,0.282375 C8.71819,-0.882989 7.91424,-1.68694 6.74887,-1.68694 C6.4379,-1.68694 6.18581,-1.93903 6.18581,-2.25 C6.18581,-2.56097 6.4379,-2.81306 6.74887,-2.81306 " fill-rule="nonzero" vector-effect="none"/>
        </g>
    </g>
</svg>
