<?xml version='1.0' encoding='UTF-8' standalone='no'?>
<svg baseProfile="tiny" height="5.82083mm" version="1.2" viewBox="0 0 66 66" width="5.82083mm" xmlns="http://www.w3.org/2000/svg" xmlns:xlink="http://www.w3.org/1999/xlink">
    <style id="current-color-scheme" type="text/css">.ColorScheme-Text {color:#232629;}</style>
    <title>Qt SVG Document</title>
    <desc>Auto-generated by Klassy window decoration</desc>
    <defs/>
    <g fill="none" fill-rule="evenodd" stroke="black" stroke-linecap="square" stroke-linejoin="bevel" stroke-width="1">
        <g class="ColorScheme-Text" fill="currentColor" fill-opacity="0.900008" font-family="Noto Sans" font-size="40" font-style="normal" font-weight="400" stroke="none" transform="matrix(3.66667,0,0,3.66667,0,0)">
            <path d="M3.81764,5.29091 C3.81764,4.55263 4.55263,3.81764 5.29091,3.81764 L12.7091,3.81764 C13.4474,3.81764 14.1824,4.55263 14.1824,5.29091 L14.1824,12.7091 C14.1824,13.4474 13.4474,14.1824 12.7091,14.1824 L5.29091,14.1824 C4.55263,14.1824 3.81764,13.4474 3.81764,12.7091 L3.81764,5.29091 M4.90964,5.29091 L4.90964,12.7091 C4.90964,12.995 5.00495,13.0904 5.29091,13.0904 L12.7091,13.0904 C12.995,13.0904 13.0904,12.995 13.0904,12.7091 L13.0904,5.29091 C13.0904,5.00495 12.995,4.90964 12.7091,4.90964 L5.29091,4.90964 C5.00495,4.90964 4.90964,5.00495 4.90964,5.29091 " fill-rule="nonzero" vector-effect="none"/>
        </g>
    </g>
</svg>
