<?xml version='1.0' encoding='UTF-8' standalone='no'?>
<svg baseProfile="tiny" height="8.46667mm" version="1.2" viewBox="0 0 40 40" width="8.46667mm" xmlns="http://www.w3.org/2000/svg" xmlns:xlink="http://www.w3.org/1999/xlink">
    <style id="current-color-scheme" type="text/css">.ColorScheme-Text {color:#fcfcfc;}</style>
    <title>Qt SVG Document</title>
    <desc>Auto-generated by Klassy window decoration</desc>
    <defs/>
    <g fill="none" fill-rule="evenodd" stroke="black" stroke-linecap="square" stroke-linejoin="bevel" stroke-width="1">
        <g class="ColorScheme-Text" fill="currentColor" fill-opacity="0.900008" font-family="Noto Sans" font-size="16.6667" font-style="normal" font-weight="400" stroke="none" transform="matrix(2.22222,0,0,2.22222,10,15)">
            <path d="M-0.45045,0.72 C-0.45045,0.135772 0.135772,-0.45045 0.72,-0.45045 L6.48,-0.45045 C7.06423,-0.45045 7.65045,0.135772 7.65045,0.72 L7.65045,6.48 C7.65045,7.06423 7.06423,7.65045 6.48,7.65045 L0.72,7.65045 C0.135772,7.65045 -0.45045,7.06423 -0.45045,6.48 L-0.45045,0.72 M0.45045,0.72 L0.45045,6.48 C0.45045,6.69106 0.508937,6.74955 0.72,6.74955 L6.48,6.74955 C6.69106,6.74955 6.74955,6.69106 6.74955,6.48 L6.74955,0.72 C6.74955,0.508937 6.69106,0.45045 6.48,0.45045 L0.72,0.45045 C0.508937,0.45045 0.45045,0.508937 0.45045,0.72 " fill-rule="nonzero" vector-effect="none"/>
        </g>
        <g class="ColorScheme-Text" fill="currentColor" fill-opacity="0.900008" font-family="Noto Sans" font-size="16.6667" font-style="normal" font-weight="400" stroke="none" transform="matrix(2.22222,0,0,2.22222,10,15)">
            <path d="M2.25,-2.70045 L7.1091,-2.70045 C7.35788,-2.70045 7.55955,-2.49878 7.55955,-2.25 C7.55955,-2.00122 7.35788,-1.79955 7.1091,-1.79955 L2.25,-1.79955 C2.00122,-1.79955 1.79955,-2.00122 1.79955,-2.25 C1.79955,-2.49878 2.00122,-2.70045 2.25,-2.70045 M7.1091,-2.70045 C8.58853,-2.70045 9.90045,-1.38853 9.90045,0.0909 L9.90045,4.95 C9.90045,5.19878 9.69878,5.40045 9.45,5.40045 C9.20122,5.40045 8.99955,5.19878 8.99955,4.95 L8.99955,0.0909 C8.99955,-1.01536 8.21536,-1.79955 7.1091,-1.79955 C6.86032,-1.79955 6.65865,-2.00122 6.65865,-2.25 C6.65865,-2.49878 6.86032,-2.70045 7.1091,-2.70045 " fill-rule="nonzero" vector-effect="none"/>
        </g>
    </g>
</svg>
