<?xml version='1.0' encoding='UTF-8' standalone='no'?>
<svg baseProfile="tiny" height="5.29167mm" version="1.2" viewBox="0 0 35 35" width="5.29167mm" xmlns="http://www.w3.org/2000/svg" xmlns:xlink="http://www.w3.org/1999/xlink">
    <style id="current-color-scheme" type="text/css">.ColorScheme-Text {color:#fcfcfc;}</style>
    <title>Qt SVG Document</title>
    <desc>Auto-generated by Klassy window decoration</desc>
    <defs/>
    <g fill="none" fill-rule="evenodd" stroke="black" stroke-linecap="square" stroke-linejoin="bevel" stroke-width="1">
        <g class="ColorScheme-Text" fill="currentColor" fill-opacity="0.900008" font-family="Noto Sans" font-size="23.3333" font-style="normal" font-weight="400" stroke="none" transform="matrix(1.94444,0,0,1.94444,9,13)">
            <path d="M-0.5148,0.72 C-0.5148,0.109118 0.109118,-0.5148 0.72,-0.5148 L6.48,-0.5148 C7.09088,-0.5148 7.7148,0.109118 7.7148,0.72 L7.7148,6.48 C7.7148,7.09088 7.09088,7.7148 6.48,7.7148 L0.72,7.7148 C0.109118,7.7148 -0.5148,7.09088 -0.5148,6.48 L-0.5148,0.72 M0.5148,0.72 L0.5148,6.48 C0.5148,6.66441 0.535592,6.6852 0.72,6.6852 L6.48,6.6852 C6.66441,6.6852 6.6852,6.66441 6.6852,6.48 L6.6852,0.72 C6.6852,0.535592 6.66441,0.5148 6.48,0.5148 L0.72,0.5148 C0.535592,0.5148 0.5148,0.535592 0.5148,0.72 " fill-rule="nonzero" vector-effect="none"/>
        </g>
        <g class="ColorScheme-Text" fill="currentColor" fill-opacity="0.900008" font-family="Noto Sans" font-size="23.3333" font-style="normal" font-weight="400" stroke="none" transform="matrix(1.94444,0,0,1.94444,9,13)">
            <path d="M2.05714,-2.57194 L6.78754,-2.57194 C7.07186,-2.57194 7.30234,-2.34146 7.30234,-2.05714 C7.30234,-1.77283 7.07186,-1.54234 6.78754,-1.54234 L2.05714,-1.54234 C1.77283,-1.54234 1.54234,-1.77283 1.54234,-2.05714 C1.54234,-2.34146 1.77283,-2.57194 2.05714,-2.57194 M6.78754,-2.57194 C8.3647,-2.57194 9.77194,-1.1647 9.77194,0.412457 L9.77194,5.14286 C9.77194,5.42717 9.54146,5.65766 9.25714,5.65766 C8.97283,5.65766 8.74234,5.42717 8.74234,5.14286 L8.74234,0.412457 C8.74234,-0.738228 7.93823,-1.54234 6.78754,-1.54234 C6.50323,-1.54234 6.27274,-1.77283 6.27274,-2.05714 C6.27274,-2.34146 6.50323,-2.57194 6.78754,-2.57194 " fill-rule="nonzero" vector-effect="none"/>
        </g>
    </g>
</svg>
