<?xml version='1.0' encoding='UTF-8' standalone='no'?>
<svg baseProfile="tiny" height="5.29167mm" version="1.2" viewBox="0 0 35 35" width="5.29167mm" xmlns="http://www.w3.org/2000/svg" xmlns:xlink="http://www.w3.org/1999/xlink">
    <style id="current-color-scheme" type="text/css">.ColorScheme-Text {color:#fcfcfc;}</style>
    <title>Qt SVG Document</title>
    <desc>Auto-generated by Klassy window decoration</desc>
    <defs/>
    <g fill="none" fill-rule="evenodd" stroke="black" stroke-linecap="square" stroke-linejoin="bevel" stroke-width="1">
        <g class="ColorScheme-Text" fill="currentColor" fill-opacity="0.900008" font-family="Noto Sans" font-size="23.3333" font-style="normal" font-weight="400" stroke="none" transform="matrix(1.94444,0,0,1.94444,0,0)">
            <path d="M4.11377,5.55429 C4.11377,4.82979 4.82979,4.11377 5.55429,4.11377 L12.96,4.11377 C13.6845,4.11377 14.4005,4.82979 14.4005,5.55429 L14.4005,12.96 C14.4005,13.6845 13.6845,14.4005 12.96,14.4005 L5.55429,14.4005 C4.82979,14.4005 4.11377,13.6845 4.11377,12.96 L4.11377,5.55429 M5.14337,5.55429 L5.14337,12.96 C5.14337,13.258 5.25626,13.3709 5.55429,13.3709 L12.96,13.3709 C13.258,13.3709 13.3709,13.258 13.3709,12.96 L13.3709,5.55429 C13.3709,5.25626 13.258,5.14337 12.96,5.14337 L5.55429,5.14337 C5.25626,5.14337 5.14337,5.25626 5.14337,5.55429 " fill-rule="nonzero" vector-effect="none"/>
        </g>
    </g>
</svg>
