<?xml version='1.0' encoding='UTF-8' standalone='no'?>
<svg baseProfile="tiny" height="12.7mm" version="1.2" viewBox="0 0 60 60" width="12.7mm" xmlns="http://www.w3.org/2000/svg" xmlns:xlink="http://www.w3.org/1999/xlink">
    <style id="current-color-scheme" type="text/css">.ColorScheme-Text {color:#232629;}</style>
    <title>Qt SVG Document</title>
    <desc>Auto-generated by Klassy window decoration</desc>
    <defs/>
    <g fill="none" fill-rule="evenodd" stroke="black" stroke-linecap="square" stroke-linejoin="bevel" stroke-width="1">
        <g class="ColorScheme-Text" fill="currentColor" fill-opacity="0.900008" font-family="Noto Sans" font-size="16.6667" font-style="normal" font-weight="400" stroke="none" transform="matrix(3.33333,0,0,3.33333,15.5,21.5)">
            <path d="M-0.45045,0.72 C-0.45045,0.135772 0.135772,-0.45045 0.72,-0.45045 L6.48,-0.45045 C7.06423,-0.45045 7.65045,0.135772 7.65045,0.72 L7.65045,6.48 C7.65045,7.06423 7.06423,7.65045 6.48,7.65045 L0.72,7.65045 C0.135772,7.65045 -0.45045,7.06423 -0.45045,6.48 L-0.45045,0.72 M0.45045,0.72 L0.45045,6.48 C0.45045,6.69106 0.508937,6.74955 0.72,6.74955 L6.48,6.74955 C6.69106,6.74955 6.74955,6.69106 6.74955,6.48 L6.74955,0.72 C6.74955,0.508937 6.69106,0.45045 6.48,0.45045 L0.72,0.45045 C0.508937,0.45045 0.45045,0.508937 0.45045,0.72 " fill-rule="nonzero" vector-effect="none"/>
        </g>
        <g class="ColorScheme-Text" fill="currentColor" fill-opacity="0.900008" font-family="Noto Sans" font-size="16.6667" font-style="normal" font-weight="400" stroke="none" transform="matrix(3.33333,0,0,3.33333,15.5,21.5)">
            <path d="M1.8,-2.25045 L6.6591,-2.25045 C6.90788,-2.25045 7.10955,-2.04878 7.10955,-1.8 C7.10955,-1.55122 6.90788,-1.34955 6.6591,-1.34955 L1.8,-1.34955 C1.55122,-1.34955 1.34955,-1.55122 1.34955,-1.8 C1.34955,-2.04878 1.55122,-2.25045 1.8,-2.25045 M6.6591,-2.25045 C8.13853,-2.25045 9.45045,-0.938526 9.45045,0.5409 L9.45045,5.4 C9.45045,5.64878 9.24878,5.85045 9,5.85045 C8.75122,5.85045 8.54955,5.64878 8.54955,5.4 L8.54955,0.5409 C8.54955,-0.565361 7.76536,-1.34955 6.6591,-1.34955 C6.41032,-1.34955 6.20865,-1.55122 6.20865,-1.8 C6.20865,-2.04878 6.41032,-2.25045 6.6591,-2.25045 " fill-rule="nonzero" vector-effect="none"/>
        </g>
    </g>
</svg>
