<?xml version='1.0' encoding='UTF-8' standalone='no'?>
<svg baseProfile="tiny" height="4.23333mm" version="1.2" viewBox="0 0 44 44" width="4.23333mm" xmlns="http://www.w3.org/2000/svg" xmlns:xlink="http://www.w3.org/1999/xlink">
    <style id="current-color-scheme" type="text/css">.ColorScheme-Text {color:#232629;}</style>
    <title>Qt SVG Document</title>
    <desc>Auto-generated by Klassy window decoration</desc>
    <defs/>
    <g fill="none" fill-rule="evenodd" stroke="black" stroke-linecap="square" stroke-linejoin="bevel" stroke-width="1">
        <g class="ColorScheme-Text" fill="currentColor" fill-opacity="0.900008" font-family="Noto Sans" font-size="36.6667" font-style="normal" font-weight="400" stroke="none" transform="matrix(2.44444,0,0,2.44444,11,16)">
            <path d="M-0.4095,0.736364 C-0.4095,0.160061 0.160061,-0.4095 0.736364,-0.4095 L6.62727,-0.4095 C7.20358,-0.4095 7.77314,0.160061 7.77314,0.736364 L7.77314,6.62727 C7.77314,7.20358 7.20358,7.77314 6.62727,7.77314 L0.736364,7.77314 C0.160061,7.77314 -0.4095,7.20358 -0.4095,6.62727 L-0.4095,0.736364 M0.4095,0.736364 L0.4095,6.62727 C0.4095,6.86433 0.499302,6.95414 0.736364,6.95414 L6.62727,6.95414 C6.86433,6.95414 6.95414,6.86433 6.95414,6.62727 L6.95414,0.736364 C6.95414,0.499302 6.86433,0.4095 6.62727,0.4095 L0.736364,0.4095 C0.499302,0.4095 0.4095,0.499302 0.4095,0.736364 " fill-rule="nonzero" vector-effect="none"/>
        </g>
        <g class="ColorScheme-Text" fill="currentColor" fill-opacity="0.900008" font-family="Noto Sans" font-size="36.6667" font-style="normal" font-weight="400" stroke="none" transform="matrix(2.44444,0,0,2.44444,11,16)">
            <path d="M2.04545,-2.45495 L7.11736,-2.45495 C7.34352,-2.45495 7.52686,-2.27162 7.52686,-2.04545 C7.52686,-1.81929 7.34352,-1.63595 7.11736,-1.63595 L2.04545,-1.63595 C1.81929,-1.63595 1.63595,-1.81929 1.63595,-2.04545 C1.63595,-2.27162 1.81929,-2.45495 2.04545,-2.45495 M7.11736,-2.45495 C8.55267,-2.45495 9.81859,-1.18903 9.81859,0.246273 L9.81859,5.31818 C9.81859,5.54434 9.63525,5.72768 9.40909,5.72768 C9.18293,5.72768 8.99959,5.54434 8.99959,5.31818 L8.99959,0.246273 C8.99959,-0.849793 8.21343,-1.63595 7.11736,-1.63595 C6.8912,-1.63595 6.70786,-1.81929 6.70786,-2.04545 C6.70786,-2.27162 6.8912,-2.45495 7.11736,-2.45495 " fill-rule="nonzero" vector-effect="none"/>
        </g>
    </g>
</svg>
