<?xml version='1.0' encoding='UTF-8' standalone='no'?>
<svg baseProfile="tiny" height="5.86894mm" version="1.2" viewBox="0 0 61 61" width="5.86894mm" xmlns="http://www.w3.org/2000/svg" xmlns:xlink="http://www.w3.org/1999/xlink">
    <style id="current-color-scheme" type="text/css">.ColorScheme-Text {color:#fcfcfc;}</style>
    <title>Qt SVG Document</title>
    <desc>Auto-generated by Klassy window decoration</desc>
    <defs/>
    <g fill="none" fill-rule="evenodd" stroke="black" stroke-linecap="square" stroke-linejoin="bevel" stroke-width="1">
        <g class="ColorScheme-Text" fill="currentColor" fill-opacity="0.900008" font-family="Noto Sans" font-size="36.6667" font-style="normal" font-weight="400" stroke="none" transform="matrix(3.38889,0,0,3.38889,0,0)">
            <path d="M4.1307,5.48852 C4.1307,4.7998 4.7998,4.1307 5.48852,4.1307 L12.8066,4.1307 C13.4953,4.1307 14.1644,4.7998 14.1644,5.48852 L14.1644,12.8066 C14.1644,13.4953 13.4953,14.1644 12.8066,14.1644 L5.48852,14.1644 C4.7998,14.1644 4.1307,13.4953 4.1307,12.8066 L4.1307,5.48852 M5.01684,5.48852 L5.01684,12.8066 C5.01684,13.1282 5.16684,13.2782 5.48852,13.2782 L12.8066,13.2782 C13.1282,13.2782 13.2782,13.1282 13.2782,12.8066 L13.2782,5.48852 C13.2782,5.16684 13.1282,5.01684 12.8066,5.01684 L5.48852,5.01684 C5.16684,5.01684 5.01684,5.16684 5.01684,5.48852 " fill-rule="nonzero" vector-effect="none"/>
        </g>
    </g>
</svg>
