<?xml version='1.0' encoding='UTF-8' standalone='no'?>
<svg baseProfile="tiny" height="5.86894mm" version="1.2" viewBox="0 0 61 61" width="5.86894mm" xmlns="http://www.w3.org/2000/svg" xmlns:xlink="http://www.w3.org/1999/xlink">
    <style id="current-color-scheme" type="text/css">.ColorScheme-Text {color:#fcfcfc;}</style>
    <title>Qt SVG Document</title>
    <desc>Auto-generated by Klassy window decoration</desc>
    <defs/>
    <g fill="none" fill-rule="evenodd" stroke="black" stroke-linecap="square" stroke-linejoin="bevel" stroke-width="1">
        <g class="ColorScheme-Text" fill="currentColor" fill-opacity="0.900008" font-family="Noto Sans" font-size="36.6667" font-style="normal" font-weight="400" stroke="none" transform="matrix(3.38889,0,0,3.38889,15.5,22.5)">
            <path d="M-0.443066,0.708197 C-0.443066,0.133547 0.133547,-0.443066 0.708197,-0.443066 L6.37377,-0.443066 C6.94842,-0.443066 7.52503,0.133547 7.52503,0.708197 L7.52503,6.37377 C7.52503,6.94842 6.94842,7.52503 6.37377,7.52503 L0.708197,7.52503 C0.133547,7.52503 -0.443066,6.94842 -0.443066,6.37377 L-0.443066,0.708197 M0.443066,0.708197 L0.443066,6.37377 C0.443066,6.58137 0.500594,6.6389 0.708197,6.6389 L6.37377,6.6389 C6.58137,6.6389 6.6389,6.58137 6.6389,6.37377 L6.6389,0.708197 C6.6389,0.500594 6.58137,0.443066 6.37377,0.443066 L0.708197,0.443066 C0.500594,0.443066 0.443066,0.500594 0.443066,0.708197 " fill-rule="nonzero" vector-effect="none"/>
        </g>
        <g class="ColorScheme-Text" fill="currentColor" fill-opacity="0.900008" font-family="Noto Sans" font-size="36.6667" font-style="normal" font-weight="400" stroke="none" transform="matrix(3.38889,0,0,3.38889,15.5,22.5)">
            <path d="M2.06557,-2.50864 L6.84502,-2.50864 C7.08971,-2.50864 7.28808,-2.31027 7.28808,-2.06557 C7.28808,-1.82088 7.08971,-1.62251 6.84502,-1.62251 L2.06557,-1.62251 C1.82088,-1.62251 1.62251,-1.82088 1.62251,-2.06557 C1.62251,-2.31027 1.82088,-2.50864 2.06557,-2.50864 M6.84502,-2.50864 C8.30019,-2.50864 9.59061,-1.21822 9.59061,0.236951 L9.59061,5.01639 C9.59061,5.26109 9.39224,5.45946 9.14754,5.45946 C8.90284,5.45946 8.70448,5.26109 8.70448,5.01639 L8.70448,0.236951 C8.70448,-0.851175 7.93314,-1.62251 6.84502,-1.62251 C6.60032,-1.62251 6.40195,-1.82088 6.40195,-2.06557 C6.40195,-2.31027 6.60032,-2.50864 6.84502,-2.50864 " fill-rule="nonzero" vector-effect="none"/>
        </g>
    </g>
</svg>
