<?xml version='1.0' encoding='UTF-8' standalone='no'?>
<svg baseProfile="tiny" height="4.86833mm" version="1.2" viewBox="0 0 23 23" width="4.86833mm" xmlns="http://www.w3.org/2000/svg" xmlns:xlink="http://www.w3.org/1999/xlink">
    <style id="current-color-scheme" type="text/css">.ColorScheme-Text {color:#fcfcfc;}</style>
    <title>Qt SVG Document</title>
    <desc>Auto-generated by Klassy window decoration</desc>
    <defs/>
    <g fill="none" fill-rule="evenodd" stroke="black" stroke-linecap="square" stroke-linejoin="bevel" stroke-width="1">
        <g class="ColorScheme-Text" fill="currentColor" fill-opacity="0.900008" font-family="Noto Sans" font-size="16.6667" font-style="normal" font-weight="400" stroke="none" transform="matrix(1.27778,0,0,1.27778,0,0)">
            <path d="M3.91265,5.32174 C3.91265,4.5976 4.5976,3.91265 5.32174,3.91265 L13.4609,3.91265 C14.185,3.91265 14.87,4.5976 14.87,5.32174 L14.87,13.4609 C14.87,14.185 14.185,14.87 13.4609,14.87 L5.32174,14.87 C4.5976,14.87 3.91265,14.185 3.91265,13.4609 L3.91265,5.32174 M4.69604,5.32174 L4.69604,13.4609 C4.69604,13.8605 4.9221,14.0866 5.32174,14.0866 L13.4609,14.0866 C13.8605,14.0866 14.0866,13.8605 14.0866,13.4609 L14.0866,5.32174 C14.0866,4.9221 13.8605,4.69604 13.4609,4.69604 L5.32174,4.69604 C4.9221,4.69604 4.69604,4.9221 4.69604,5.32174 " fill-rule="nonzero" vector-effect="none"/>
        </g>
    </g>
</svg>
