<?xml version='1.0' encoding='UTF-8' standalone='no'?>
<svg baseProfile="tiny" height="4.86833mm" version="1.2" viewBox="0 0 23 23" width="4.86833mm" xmlns="http://www.w3.org/2000/svg" xmlns:xlink="http://www.w3.org/1999/xlink">
    <style id="current-color-scheme" type="text/css">.ColorScheme-Text {color:#fcfcfc;}</style>
    <title>Qt SVG Document</title>
    <desc>Auto-generated by Klassy window decoration</desc>
    <defs/>
    <g fill="none" fill-rule="evenodd" stroke="black" stroke-linecap="square" stroke-linejoin="bevel" stroke-width="1">
        <g class="ColorScheme-Text" fill="currentColor" fill-opacity="0.900008" font-family="Noto Sans" font-size="16.6667" font-style="normal" font-weight="400" stroke="none" transform="matrix(1.27778,0,0,1.27778,5.5,9.5)">
            <path d="M-0.391696,0.704348 C-0.391696,0.153102 0.153102,-0.391696 0.704348,-0.391696 L6.33913,-0.391696 C6.89038,-0.391696 7.43517,0.153102 7.43517,0.704348 L7.43517,6.33913 C7.43517,6.89038 6.89038,7.43517 6.33913,7.43517 L0.704348,7.43517 C0.153102,7.43517 -0.391696,6.89038 -0.391696,6.33913 L-0.391696,0.704348 M0.391696,0.704348 L0.391696,6.33913 C0.391696,6.56589 0.477593,6.65178 0.704348,6.65178 L6.33913,6.65178 C6.56589,6.65178 6.65178,6.56589 6.65178,6.33913 L6.65178,0.704348 C6.65178,0.477593 6.56589,0.391696 6.33913,0.391696 L0.704348,0.391696 C0.477593,0.391696 0.391696,0.477593 0.391696,0.704348 " fill-rule="nonzero" vector-effect="none"/>
        </g>
        <g class="ColorScheme-Text" fill="currentColor" fill-opacity="0.900008" font-family="Noto Sans" font-size="16.6667" font-style="normal" font-weight="400" stroke="none" transform="matrix(1.27778,0,0,1.27778,5.5,9.5)">
            <path d="M2.34783,-2.73952 L7.19922,-2.73952 C7.41554,-2.73952 7.59091,-2.56415 7.59091,-2.34783 C7.59091,-2.1315 7.41554,-1.95613 7.19922,-1.95613 L2.34783,-1.95613 C2.1315,-1.95613 1.95613,-2.1315 1.95613,-2.34783 C1.95613,-2.56415 2.1315,-2.73952 2.34783,-2.73952 M7.19922,-2.73952 C8.57212,-2.73952 9.783,-1.52864 9.783,-0.155739 L9.783,4.69565 C9.783,4.91198 9.60763,5.08735 9.3913,5.08735 C9.17498,5.08735 8.99961,4.91198 8.99961,4.69565 L8.99961,-0.155739 C8.99961,-1.20415 8.24763,-1.95613 7.19922,-1.95613 C6.98289,-1.95613 6.80752,-2.1315 6.80752,-2.34783 C6.80752,-2.56415 6.98289,-2.73952 7.19922,-2.73952 " fill-rule="nonzero" vector-effect="none"/>
        </g>
    </g>
</svg>
