<?xml version='1.0' encoding='UTF-8' standalone='no'?>
<svg baseProfile="tiny" height="5.29167mm" version="1.2" viewBox="0 0 50 50" width="5.29167mm" xmlns="http://www.w3.org/2000/svg" xmlns:xlink="http://www.w3.org/1999/xlink">
    <style id="current-color-scheme" type="text/css">.ColorScheme-Text {color:#232629;}</style>
    <title>Qt SVG Document</title>
    <desc>Auto-generated by Klassy window decoration</desc>
    <defs/>
    <g fill="none" fill-rule="evenodd" stroke="black" stroke-linecap="square" stroke-linejoin="bevel" stroke-width="1">
        <g class="ColorScheme-Text" fill="currentColor" fill-opacity="0.900008" font-family="Noto Sans" font-size="33.3333" font-style="normal" font-weight="400" stroke="none" transform="matrix(2.77778,0,0,2.77778,12.5,18.5)">
            <path d="M-0.54054,0.72 C-0.54054,0.098456 0.098456,-0.54054 0.72,-0.54054 L6.48,-0.54054 C7.10154,-0.54054 7.74054,0.098456 7.74054,0.72 L7.74054,6.48 C7.74054,7.10154 7.10154,7.74054 6.48,7.74054 L0.72,7.74054 C0.098456,7.74054 -0.54054,7.10154 -0.54054,6.48 L-0.54054,0.72 M0.54054,0.72 L0.54054,6.48 C0.54054,6.65375 0.546254,6.65946 0.72,6.65946 L6.48,6.65946 C6.65375,6.65946 6.65946,6.65375 6.65946,6.48 L6.65946,0.72 C6.65946,0.546254 6.65375,0.54054 6.48,0.54054 L0.72,0.54054 C0.546254,0.54054 0.54054,0.546254 0.54054,0.72 " fill-rule="nonzero" vector-effect="none"/>
        </g>
        <g class="ColorScheme-Text" fill="currentColor" fill-opacity="0.900008" font-family="Noto Sans" font-size="33.3333" font-style="normal" font-weight="400" stroke="none" transform="matrix(2.77778,0,0,2.77778,12.5,18.5)">
            <path d="M2.16,-2.70054 L6.83892,-2.70054 C7.13745,-2.70054 7.37946,-2.45853 7.37946,-2.16 C7.37946,-1.86147 7.13745,-1.61946 6.83892,-1.61946 L2.16,-1.61946 C1.86147,-1.61946 1.61946,-1.86147 1.61946,-2.16 C1.61946,-2.45853 1.86147,-2.70054 2.16,-2.70054 M6.83892,-2.70054 C8.45517,-2.70054 9.90054,-1.25517 9.90054,0.36108 L9.90054,5.04 C9.90054,5.33853 9.65853,5.58054 9.36,5.58054 C9.06147,5.58054 8.81946,5.33853 8.81946,5.04 L8.81946,0.36108 C8.81946,-0.807375 8.00738,-1.61946 6.83892,-1.61946 C6.54039,-1.61946 6.29838,-1.86147 6.29838,-2.16 C6.29838,-2.45853 6.54039,-2.70054 6.83892,-2.70054 " fill-rule="nonzero" vector-effect="none"/>
        </g>
    </g>
</svg>
