<?xml version='1.0' encoding='UTF-8' standalone='no'?>
<svg baseProfile="tiny" height="5.82083mm" version="1.2" viewBox="0 0 33 33" width="5.82083mm" xmlns="http://www.w3.org/2000/svg" xmlns:xlink="http://www.w3.org/1999/xlink">
    <style id="current-color-scheme" type="text/css">.ColorScheme-Text {color:#fcfcfc;}</style>
    <title>Qt SVG Document</title>
    <desc>Auto-generated by Klassy window decoration</desc>
    <defs/>
    <g fill="none" fill-rule="evenodd" stroke="black" stroke-linecap="square" stroke-linejoin="bevel" stroke-width="1">
        <g class="ColorScheme-Text" fill="currentColor" fill-opacity="0.900008" font-family="Noto Sans" font-size="20" font-style="normal" font-weight="400" stroke="none" transform="matrix(1.83333,0,0,1.83333,0,0)">
            <path d="M3.81764,5.34545 C3.81764,4.57705 4.57705,3.81764 5.34545,3.81764 L13.2,3.81764 C13.9684,3.81764 14.7278,4.57705 14.7278,5.34545 L14.7278,13.2 C14.7278,13.9684 13.9684,14.7278 13.2,14.7278 L5.34545,14.7278 C4.57705,14.7278 3.81764,13.9684 3.81764,13.2 L3.81764,5.34545 M4.90964,5.34545 L4.90964,13.2 C4.90964,13.5161 5.02937,13.6358 5.34545,13.6358 L13.2,13.6358 C13.5161,13.6358 13.6358,13.5161 13.6358,13.2 L13.6358,5.34545 C13.6358,5.02937 13.5161,4.90964 13.2,4.90964 L5.34545,4.90964 C5.02937,4.90964 4.90964,5.02937 4.90964,5.34545 " fill-rule="nonzero" vector-effect="none"/>
        </g>
    </g>
</svg>
