<?xml version='1.0' encoding='UTF-8' standalone='no'?>
<svg baseProfile="tiny" height="5.29167mm" version="1.2" viewBox="0 0 60 60" width="5.29167mm" xmlns="http://www.w3.org/2000/svg" xmlns:xlink="http://www.w3.org/1999/xlink">
    <style id="current-color-scheme" type="text/css">.ColorScheme-Text {color:#232629;}</style>
    <title>Qt SVG Document</title>
    <desc>Auto-generated by Klassy window decoration</desc>
    <defs/>
    <g fill="none" fill-rule="evenodd" stroke="black" stroke-linecap="square" stroke-linejoin="bevel" stroke-width="1">
        <g class="ColorScheme-Text" fill="currentColor" fill-opacity="0.900008" font-family="Noto Sans" font-size="40" font-style="normal" font-weight="400" stroke="none" transform="matrix(3.33333,0,0,3.33333,0,0)">
            <path d="M3.89955,5.28 C3.89955,4.57979 4.57979,3.89955 5.28,3.89955 L12.72,3.89955 C13.4202,3.89955 14.1005,4.57979 14.1005,5.28 L14.1005,12.72 C14.1005,13.4202 13.4202,14.1005 12.72,14.1005 L5.28,14.1005 C4.57979,14.1005 3.89955,13.4202 3.89955,12.72 L3.89955,5.28 M4.80045,5.28 L4.80045,12.72 C4.80045,13.047 4.95296,13.1996 5.28,13.1996 L12.72,13.1996 C13.047,13.1996 13.1996,13.047 13.1996,12.72 L13.1996,5.28 C13.1996,4.95296 13.047,4.80045 12.72,4.80045 L5.28,4.80045 C4.95296,4.80045 4.80045,4.95296 4.80045,5.28 " fill-rule="nonzero" vector-effect="none"/>
        </g>
    </g>
</svg>
