<?xml version='1.0' encoding='UTF-8' standalone='no'?>
<svg baseProfile="tiny" height="8.46667mm" version="1.2" viewBox="0 0 96 96" width="8.46667mm" xmlns="http://www.w3.org/2000/svg" xmlns:xlink="http://www.w3.org/1999/xlink">
    <style id="current-color-scheme" type="text/css">.ColorScheme-Text {color:#232629;}</style>
    <title>Qt SVG Document</title>
    <desc>Auto-generated by Klassy window decoration</desc>
    <defs/>
    <g fill="none" fill-rule="evenodd" stroke="black" stroke-linecap="square" stroke-linejoin="bevel" stroke-width="1">
        <g class="ColorScheme-Text" fill="currentColor" fill-opacity="0.900008" font-family="Noto Sans" font-size="40" font-style="normal" font-weight="400" stroke="none" transform="matrix(5.33333,0,0,5.33333,23.5,34.5)">
            <path d="M-0.469219,0.7125 C-0.469219,0.12464 0.12464,-0.469219 0.7125,-0.469219 L6.4125,-0.469219 C7.00036,-0.469219 7.59422,0.12464 7.59422,0.7125 L7.59422,6.4125 C7.59422,7.00036 7.00036,7.59422 6.4125,7.59422 L0.7125,7.59422 C0.12464,7.59422 -0.469219,7.00036 -0.469219,6.4125 L-0.469219,0.7125 M0.469219,0.7125 L0.469219,6.4125 C0.469219,6.61165 0.513354,6.65578 0.7125,6.65578 L6.4125,6.65578 C6.61165,6.65578 6.65578,6.61165 6.65578,6.4125 L6.65578,0.7125 C6.65578,0.513354 6.61165,0.469219 6.4125,0.469219 L0.7125,0.469219 C0.513354,0.469219 0.469219,0.513354 0.469219,0.7125 " fill-rule="nonzero" vector-effect="none"/>
        </g>
        <g class="ColorScheme-Text" fill="currentColor" fill-opacity="0.900008" font-family="Noto Sans" font-size="40" font-style="normal" font-weight="400" stroke="none" transform="matrix(5.33333,0,0,5.33333,23.5,34.5)">
            <path d="M2.0625,-2.53172 L6.82406,-2.53172 C7.0832,-2.53172 7.29328,-2.32164 7.29328,-2.0625 C7.29328,-1.80336 7.0832,-1.59328 6.82406,-1.59328 L2.0625,-1.59328 C1.80336,-1.59328 1.59328,-1.80336 1.59328,-2.0625 C1.59328,-2.32164 1.80336,-2.53172 2.0625,-2.53172 M6.82406,-2.53172 C8.32371,-2.53172 9.65672,-1.19871 9.65672,0.300937 L9.65672,5.0625 C9.65672,5.32164 9.44664,5.53172 9.1875,5.53172 C8.92836,5.53172 8.71828,5.32164 8.71828,5.0625 L8.71828,0.300937 C8.71828,-0.809996 7.935,-1.59328 6.82406,-1.59328 C6.56492,-1.59328 6.35484,-1.80336 6.35484,-2.0625 C6.35484,-2.32164 6.56492,-2.53172 6.82406,-2.53172 " fill-rule="nonzero" vector-effect="none"/>
        </g>
    </g>
</svg>
