<?xml version='1.0' encoding='UTF-8' standalone='no'?>
<svg baseProfile="tiny" height="8.46667mm" version="1.2" viewBox="0 0 96 96" width="8.46667mm" xmlns="http://www.w3.org/2000/svg" xmlns:xlink="http://www.w3.org/1999/xlink">
    <style id="current-color-scheme" type="text/css">.ColorScheme-Text {color:#232629;}</style>
    <title>Qt SVG Document</title>
    <desc>Auto-generated by Klassy window decoration</desc>
    <defs/>
    <g fill="none" fill-rule="evenodd" stroke="black" stroke-linecap="square" stroke-linejoin="bevel" stroke-width="1">
        <g class="ColorScheme-Text" fill="currentColor" fill-opacity="0.900008" font-family="Noto Sans" font-size="40" font-style="normal" font-weight="400" stroke="none" transform="matrix(5.33333,0,0,5.33333,0,0)">
            <path d="M3.93703,5.325 C3.93703,4.62323 4.62323,3.93703 5.325,3.93703 L12.675,3.93703 C13.3768,3.93703 14.063,4.62323 14.063,5.325 L14.063,12.675 C14.063,13.3768 13.3768,14.063 12.675,14.063 L5.325,14.063 C4.62323,14.063 3.93703,13.3768 3.93703,12.675 L3.93703,5.325 M4.87547,5.325 L4.87547,12.675 C4.87547,12.9881 5.01195,13.1245 5.325,13.1245 L12.675,13.1245 C12.9881,13.1245 13.1245,12.9881 13.1245,12.675 L13.1245,5.325 C13.1245,5.01195 12.9881,4.87547 12.675,4.87547 L5.325,4.87547 C5.01195,4.87547 4.87547,5.01195 4.87547,5.325 " fill-rule="nonzero" vector-effect="none"/>
        </g>
    </g>
</svg>
