<?xml version='1.0' encoding='UTF-8' standalone='no'?>
<svg baseProfile="tiny" height="4.7625mm" version="1.2" viewBox="0 0 45 45" width="4.7625mm" xmlns="http://www.w3.org/2000/svg" xmlns:xlink="http://www.w3.org/1999/xlink">
    <style id="current-color-scheme" type="text/css">.ColorScheme-Text {color:#fcfcfc;}</style>
    <title>Qt SVG Document</title>
    <desc>Auto-generated by Klassy window decoration</desc>
    <defs/>
    <g fill="none" fill-rule="evenodd" stroke="black" stroke-linecap="square" stroke-linejoin="bevel" stroke-width="1">
        <g class="ColorScheme-Text" fill="currentColor" fill-opacity="0.900008" font-family="Noto Sans" font-size="33.3333" font-style="normal" font-weight="400" stroke="none" transform="matrix(2.5,0,0,2.5,10.5,17.5)">
            <path d="M-0.6006,0.72 C-0.6006,0.0735783 0.0735783,-0.6006 0.72,-0.6006 L6.48,-0.6006 C7.12642,-0.6006 7.8006,0.0735783 7.8006,0.72 L7.8006,6.48 C7.8006,7.12642 7.12642,7.8006 6.48,7.8006 L0.72,7.8006 C0.0735783,7.8006 -0.6006,7.12642 -0.6006,6.48 L-0.6006,0.72 M0.6006,0.72 L0.6006,6.48 C0.6006,6.62887 0.571132,6.5994 0.72,6.5994 L6.48,6.5994 C6.62887,6.5994 6.5994,6.62887 6.5994,6.48 L6.5994,0.72 C6.5994,0.571132 6.62887,0.6006 6.48,0.6006 L0.72,0.6006 C0.571132,0.6006 0.6006,0.571132 0.6006,0.72 " fill-rule="nonzero" vector-effect="none"/>
        </g>
        <g class="ColorScheme-Text" fill="currentColor" fill-opacity="0.900008" font-family="Noto Sans" font-size="33.3333" font-style="normal" font-weight="400" stroke="none" transform="matrix(2.5,0,0,2.5,10.5,17.5)">
            <path d="M2.4,-3.0006 L6.9588,-3.0006 C7.2905,-3.0006 7.5594,-2.7317 7.5594,-2.4 C7.5594,-2.0683 7.2905,-1.7994 6.9588,-1.7994 L2.4,-1.7994 C2.0683,-1.7994 1.7994,-2.0683 1.7994,-2.4 C1.7994,-2.7317 2.0683,-3.0006 2.4,-3.0006 M6.9588,-3.0006 C8.66627,-3.0006 10.2006,-1.46627 10.2006,0.2412 L10.2006,4.8 C10.2006,5.1317 9.9317,5.4006 9.6,5.4006 C9.2683,5.4006 8.9994,5.1317 8.9994,4.8 L8.9994,0.2412 C8.9994,-0.968718 8.16872,-1.7994 6.9588,-1.7994 C6.6271,-1.7994 6.3582,-2.0683 6.3582,-2.4 C6.3582,-2.7317 6.6271,-3.0006 6.9588,-3.0006 " fill-rule="nonzero" vector-effect="none"/>
        </g>
    </g>
</svg>
