<?xml version='1.0' encoding='UTF-8' standalone='no'?>
<svg baseProfile="tiny" height="5.29167mm" version="1.2" viewBox="0 0 55 55" width="5.29167mm" xmlns="http://www.w3.org/2000/svg" xmlns:xlink="http://www.w3.org/1999/xlink">
    <style id="current-color-scheme" type="text/css">.ColorScheme-Text {color:#232629;}</style>
    <title>Qt SVG Document</title>
    <desc>Auto-generated by Klassy window decoration</desc>
    <defs/>
    <g fill="none" fill-rule="evenodd" stroke="black" stroke-linecap="square" stroke-linejoin="bevel" stroke-width="1">
        <g class="ColorScheme-Text" fill="currentColor" fill-opacity="0.900008" font-family="Noto Sans" font-size="36.6667" font-style="normal" font-weight="400" stroke="none" transform="matrix(3.05556,0,0,3.05556,13.5,20.5)">
            <path d="M-0.4914,0.72 C-0.4914,0.11881 0.11881,-0.4914 0.72,-0.4914 L6.48,-0.4914 C7.08119,-0.4914 7.6914,0.11881 7.6914,0.72 L7.6914,6.48 C7.6914,7.08119 7.08119,7.6914 6.48,7.6914 L0.72,7.6914 C0.11881,7.6914 -0.4914,7.08119 -0.4914,6.48 L-0.4914,0.72 M0.4914,0.72 L0.4914,6.48 C0.4914,6.6741 0.5259,6.7086 0.72,6.7086 L6.48,6.7086 C6.6741,6.7086 6.7086,6.6741 6.7086,6.48 L6.7086,0.72 C6.7086,0.5259 6.6741,0.4914 6.48,0.4914 L0.72,0.4914 C0.5259,0.4914 0.4914,0.5259 0.4914,0.72 " fill-rule="nonzero" vector-effect="none"/>
        </g>
        <g class="ColorScheme-Text" fill="currentColor" fill-opacity="0.900008" font-family="Noto Sans" font-size="36.6667" font-style="normal" font-weight="400" stroke="none" transform="matrix(3.05556,0,0,3.05556,13.5,20.5)">
            <path d="M2.29091,-2.78231 L7.06811,-2.78231 C7.3395,-2.78231 7.55951,-2.5623 7.55951,-2.29091 C7.55951,-2.01952 7.3395,-1.79951 7.06811,-1.79951 L2.29091,-1.79951 C2.01952,-1.79951 1.79951,-2.01952 1.79951,-2.29091 C1.79951,-2.5623 2.01952,-2.78231 2.29091,-2.78231 M7.06811,-2.78231 C8.60973,-2.78231 9.98231,-1.40973 9.98231,0.131891 L9.98231,4.90909 C9.98231,5.18048 9.7623,5.40049 9.49091,5.40049 C9.21952,5.40049 8.99951,5.18048 8.99951,4.90909 L8.99951,0.131891 C8.99951,-1.00264 8.20264,-1.79951 7.06811,-1.79951 C6.79672,-1.79951 6.57671,-2.01952 6.57671,-2.29091 C6.57671,-2.5623 6.79672,-2.78231 7.06811,-2.78231 " fill-rule="nonzero" vector-effect="none"/>
        </g>
    </g>
</svg>
